<svg width="85" height="85" viewBox="0 0 85 85" fill="none" xmlns="http://www.w3.org/2000/svg">
<path d="M45.8201 74.373H36.5239C36.1569 74.373 35.8599 74.076 35.8599 73.7089V11.291C35.8599 10.924 36.1569 10.627 36.5239 10.627H45.8201C46.1872 10.627 46.4842 10.924 46.4842 11.291V73.7089C46.4842 74.076 46.1872 74.373 45.8201 74.373ZM37.1878 73.0448H45.1562V11.9551H37.1878V73.0448Z" fill="url(#paint0_linear_1_819)"/>
<path d="M41.1721 46.4841C39.6831 46.4841 38.516 44.7347 38.516 42.5001C38.516 40.2662 39.6831 38.5159 41.1721 38.5159C42.6609 38.5159 43.8282 40.266 43.8282 42.5001C43.8282 44.7347 42.6609 46.4841 41.1721 46.4841ZM41.1721 39.844C40.5457 39.844 39.8439 40.9801 39.8439 42.5001C39.8439 44.0201 40.5457 45.1562 41.1721 45.1562C41.7984 45.1562 42.5 44.0201 42.5 42.5001C42.5 40.9801 41.7984 39.844 41.1721 39.844ZM41.1721 57.1085C39.6831 57.1085 38.516 55.3577 38.516 53.1231C38.516 50.8899 39.6831 49.1404 41.1721 49.1404C42.6609 49.1404 43.8282 50.8899 43.8282 53.1231C43.8282 55.3577 42.6609 57.1085 41.1721 57.1085ZM41.1721 50.4684C40.5457 50.4684 39.8439 51.6044 39.8439 53.1231C39.8439 54.6445 40.5457 55.7805 41.1721 55.7805C41.7984 55.7805 42.5 54.6445 42.5 53.1231C42.5 51.6044 41.7984 50.4684 41.1721 50.4684ZM41.1721 35.86C39.6831 35.86 38.516 34.1098 38.516 31.8758C38.516 29.6417 39.6831 27.8916 41.1721 27.8916C42.6609 27.8916 43.8282 29.6417 43.8282 31.8758C43.8282 34.1098 42.6609 35.86 41.1721 35.86ZM41.1721 29.2197C40.5457 29.2197 39.8439 30.3557 39.8439 31.8758C39.8439 33.3958 40.5457 34.5319 41.1721 34.5319C41.7984 34.5319 42.5 33.3958 42.5 31.8758C42.5 30.3557 41.7984 29.2197 41.1721 29.2197ZM45.8202 74.3731C45.6441 74.373 45.4753 74.303 45.3508 74.1785C45.2263 74.054 45.1563 73.8851 45.1563 73.7091V11.2912C45.1563 11.1887 45.1801 11.0877 45.2256 10.9959C45.2712 10.9042 45.3374 10.8242 45.419 10.7623C45.5006 10.7003 45.5955 10.6581 45.6961 10.6389C45.7968 10.6198 45.9005 10.6241 45.9991 10.6517L79.2003 19.948C79.3398 19.9871 79.4626 20.0708 79.5502 20.1862C79.6377 20.3016 79.6852 20.4425 79.6852 20.5874V64.4128C79.6852 64.5577 79.6378 64.6987 79.5503 64.8141C79.4627 64.9296 79.3398 65.0132 79.2003 65.0523L45.9991 74.3485C45.9409 74.365 45.8807 74.3733 45.8202 74.3731ZM46.4842 12.1666V72.8336L78.3572 63.9096V21.0912L46.4842 12.1666ZM33.8679 15.9393H0.666748C0.299687 15.9393 0.00268555 15.6423 0.00268555 15.2752C0.00268555 14.9083 0.299687 14.6111 0.666748 14.6111H33.8679C33.9551 14.6111 34.0415 14.6282 34.122 14.6616C34.2026 14.695 34.2758 14.7439 34.3375 14.8056C34.3991 14.8672 34.448 14.9405 34.4814 15.021C34.5147 15.1016 34.5318 15.188 34.5318 15.2752C34.5318 15.6423 34.2348 15.9393 33.8679 15.9393ZM33.8679 70.3891H0.666748C0.299687 70.3891 0.00268555 70.0921 0.00268555 69.725C0.00268555 69.3579 0.299687 69.0609 0.666748 69.0609H33.8679C34.2348 69.0609 34.5318 69.3579 34.5318 69.725C34.5318 70.0921 34.2348 70.3891 33.8679 70.3891Z" fill="url(#paint1_linear_1_819)"/>
<path d="M0.666748 70.389C0.299687 70.389 0.00268555 70.092 0.00268555 69.725V15.2751C0.00268555 14.9083 0.299687 14.6111 0.666748 14.6111C1.03381 14.6111 1.33081 14.9081 1.33081 15.2751V69.725C1.33081 70.092 1.03381 70.389 0.666748 70.389ZM84.3335 15.9392H68.397C68.0299 15.9392 67.7329 15.6422 67.7329 15.2751C67.7329 14.9083 68.0299 14.6111 68.397 14.6111H84.3335C84.4207 14.611 84.507 14.6282 84.5876 14.6615C84.6682 14.6949 84.7414 14.7438 84.8031 14.8055C84.8647 14.8672 84.9136 14.9404 84.947 15.021C84.9803 15.1016 84.9974 15.1879 84.9974 15.2751C84.9974 15.6422 84.7004 15.9392 84.3335 15.9392Z" fill="url(#paint2_linear_1_819)"/>
<path d="M84.3335 70.389C83.9664 70.389 83.6694 70.092 83.6694 69.725V15.2751C83.6694 14.9083 83.9664 14.6111 84.3335 14.6111C84.4207 14.611 84.5071 14.6282 84.5877 14.6615C84.6682 14.6949 84.7414 14.7438 84.8031 14.8055C84.8648 14.8672 84.9137 14.9404 84.947 15.021C84.9803 15.1016 84.9975 15.1879 84.9974 15.2751V69.725C84.9974 70.092 84.7004 70.389 84.3335 70.389Z" fill="url(#paint3_linear_1_819)"/>
<path d="M84.3334 70.3891H68.3969C68.0299 70.3891 67.7329 70.0921 67.7329 69.725C67.7329 69.3579 68.0299 69.0609 68.3969 69.0609H84.3334C84.7003 69.0609 84.9973 69.3579 84.9973 69.725C84.9973 70.0921 84.7003 70.3891 84.3334 70.3891ZM33.8678 65.0769H5.97888C5.61182 65.0769 5.31482 64.7799 5.31482 64.4128C5.31482 64.0458 5.61182 63.7488 5.97888 63.7488H33.8678C34.2347 63.7488 34.5317 64.0458 34.5317 64.4128C34.5317 64.7799 34.2347 65.0769 33.8678 65.0769Z" fill="url(#paint4_linear_1_819)"/>
<path d="M5.97888 65.0767C5.61182 65.0767 5.31482 64.7797 5.31482 64.4126V20.5872C5.31482 20.2203 5.61182 19.9231 5.97888 19.9231C6.34594 19.9231 6.64294 20.2201 6.64294 20.5872V64.4126C6.64294 64.7797 6.34594 65.0767 5.97888 65.0767Z" fill="url(#paint5_linear_1_819)"/>
<path d="M33.8678 21.2512H5.97888C5.61182 21.2512 5.31482 20.9542 5.31482 20.5872C5.31482 20.2203 5.61182 19.9231 5.97888 19.9231H33.8678C33.9551 19.9231 34.0414 19.9402 34.122 19.9736C34.2026 20.0069 34.2758 20.0558 34.3375 20.1175C34.3991 20.1792 34.448 20.2524 34.4813 20.333C34.5147 20.4136 34.5318 20.4999 34.5317 20.5872C34.5317 20.9542 34.2347 21.2512 33.8678 21.2512ZM55.1152 49.8041C52.5097 49.8041 50.4684 46.5955 50.4684 42.4999C50.4684 38.4043 52.5097 35.1957 55.1152 35.1957C55.4823 35.1957 55.7793 35.4927 55.7793 35.8598C55.7793 36.2268 55.4823 36.5238 55.1152 36.5238C53.3162 36.5238 51.7964 39.2603 51.7964 42.5001C51.7964 45.7397 53.3162 48.4763 55.1152 48.4763C55.4823 48.4763 55.7793 48.7733 55.7793 49.1404C55.7793 49.2276 55.7621 49.3139 55.7287 49.3945C55.6954 49.475 55.6465 49.5482 55.5848 49.6099C55.5231 49.6715 55.4499 49.7204 55.3693 49.7537C55.2887 49.787 55.2024 49.8042 55.1152 49.8041Z" fill="url(#paint6_linear_1_819)"/>
<path d="M55.2489 46.484C53.8547 46.484 53.1244 44.4804 53.1244 42.5C53.1244 40.5203 53.8545 38.5158 55.2489 38.5158C55.3864 38.5158 69.0609 39.6927 69.0609 42.5C69.0609 45.3078 55.3864 46.484 55.2489 46.484ZM55.2489 39.8439C55.0648 39.8711 54.4525 40.7532 54.4525 42.5C54.4525 44.2403 55.0635 45.1262 55.2502 45.1561C56.7299 45.1547 66.5179 43.6971 67.6798 42.4995C66.5205 41.3024 56.7273 39.8446 55.2489 39.8439ZM57.7753 38.2203C57.666 38.2204 57.5584 38.1936 57.462 38.1421C57.3656 38.0907 57.2835 38.0162 57.2228 37.9253C56.6184 37.022 55.8703 36.5239 55.1154 36.5239C54.7484 36.5239 54.4514 36.2269 54.4514 35.8599C54.4514 35.4928 54.7484 35.1958 55.1154 35.1958C56.328 35.1958 57.468 35.9025 58.3278 37.1872C58.3947 37.2872 58.4331 37.4035 58.439 37.5236C58.4449 37.6438 58.4181 37.7633 58.3613 37.8694C58.3046 37.9755 58.2201 38.0641 58.1169 38.1259C58.0137 38.1877 57.8956 38.2203 57.7753 38.2203ZM55.1152 49.8042C54.7482 49.8042 54.4512 49.5072 54.4512 49.1403C54.4512 48.7732 54.7482 48.4762 55.1152 48.4762C55.8701 48.4762 56.6184 47.9782 57.2227 47.0754C57.3205 46.9288 57.4726 46.8272 57.6454 46.7928C57.8182 46.7584 57.9976 46.794 58.1441 46.8918C58.2907 46.9897 58.3923 47.1418 58.4267 47.3146C58.4611 47.4874 58.4255 47.6668 58.3277 47.8133C57.4679 49.0975 56.3278 49.8042 55.1152 49.8042Z" fill="url(#paint7_linear_1_819)"/>
<path d="M56.4458 43.8282C56.3586 43.8282 56.2723 43.8111 56.1918 43.7778C56.1112 43.7445 56.038 43.6956 55.9764 43.634C55.9147 43.5724 55.8658 43.4993 55.8325 43.4188C55.7991 43.3383 55.7819 43.252 55.7819 43.1648L55.7805 41.8367C55.7804 41.6607 55.8501 41.4919 55.9743 41.3673C56.0986 41.2427 56.2672 41.1725 56.4431 41.1721H56.4444C56.8115 41.1721 57.1085 41.4691 57.1085 41.8355L57.1098 43.1636C57.1098 43.3398 57.0399 43.5088 56.9154 43.6334C56.7908 43.758 56.6219 43.8281 56.4458 43.8282ZM3.32275 74.3731C2.95569 74.3731 2.65869 74.0761 2.65869 73.709V72.3811C2.65869 72.014 2.95569 71.717 3.32275 71.717C3.68981 71.717 3.98682 72.014 3.98682 72.3811V73.709C3.98682 74.0761 3.68981 74.3731 3.32275 74.3731Z" fill="url(#paint8_linear_1_819)"/>
<path d="M15.2752 74.373H3.32275C2.95569 74.373 2.65869 74.076 2.65869 73.709C2.65869 73.3419 2.95569 73.0449 3.32275 73.0449H15.2752C15.6421 73.0449 15.9391 73.3419 15.9391 73.709C15.9391 74.076 15.6421 74.373 15.2752 74.373Z" fill="url(#paint9_linear_1_819)"/>
<path d="M15.2753 74.3731C14.9082 74.3731 14.6112 74.0761 14.6112 73.7091V72.3811C14.6112 72.014 14.9082 71.717 15.2753 71.717C15.3625 71.717 15.4488 71.7341 15.5294 71.7675C15.61 71.8009 15.6832 71.8498 15.7449 71.9114C15.8065 71.9731 15.8554 72.0464 15.8888 72.1269C15.9221 72.2075 15.9392 72.2939 15.9392 72.3811V73.7091C15.9392 74.0761 15.6422 74.3731 15.2753 74.3731ZM69.7249 74.3731C69.3578 74.3731 69.0608 74.0761 69.0608 73.7091V72.3811C69.0608 72.014 69.3578 71.717 69.7249 71.717C70.092 71.717 70.389 72.014 70.389 72.3811V73.7091C70.389 74.0761 70.092 74.3731 69.7249 74.3731Z" fill="url(#paint10_linear_1_819)"/>
<path d="M81.6773 74.373H69.7249C69.3578 74.373 69.0608 74.076 69.0608 73.709C69.0608 73.3419 69.3578 73.0449 69.7249 73.0449H81.6773C82.0444 73.0449 82.3414 73.3419 82.3414 73.709C82.3414 74.076 82.0444 74.373 81.6773 74.373Z" fill="url(#paint11_linear_1_819)"/>
<path d="M81.6774 74.3729C81.3103 74.3729 81.0133 74.0759 81.0133 73.7089V72.3809C81.0133 72.0138 81.3103 71.7168 81.6774 71.7168C82.0444 71.7168 82.3414 72.0138 82.3414 72.3809V73.7089C82.3414 74.0759 82.0444 74.3729 81.6774 74.3729ZM8.63499 62.4205C8.50364 62.4206 8.37521 62.3817 8.26596 62.3087C8.15671 62.2358 8.07157 62.1321 8.0213 62.0107C7.97103 61.8894 7.95789 61.7558 7.98356 61.627C8.00923 61.4982 8.07255 61.3799 8.1655 61.2871L13.4777 55.9749C13.6031 55.8549 13.7705 55.7887 13.9441 55.7906C14.1177 55.7925 14.2836 55.8622 14.4064 55.985C14.5292 56.1077 14.599 56.2737 14.6009 56.4473C14.6028 56.6209 14.5367 56.7883 14.4167 56.9137L9.10448 62.2259C9.04292 62.2877 8.96975 62.3367 8.88917 62.3701C8.8086 62.4035 8.72221 62.4206 8.63499 62.4205ZM13.9472 29.2195C13.8599 29.2196 13.7736 29.2024 13.693 29.1691C13.6124 29.1357 13.5393 29.0867 13.4777 29.0249L8.1655 23.7128C8.10207 23.6515 8.05148 23.5782 8.01668 23.4972C7.98188 23.4162 7.96356 23.3291 7.96279 23.2409C7.96203 23.1527 7.97883 23.0653 8.01222 22.9837C8.04561 22.902 8.09492 22.8279 8.15727 22.7655C8.21962 22.7032 8.29376 22.6539 8.37537 22.6205C8.45698 22.5871 8.54443 22.5703 8.6326 22.5711C8.72078 22.5718 8.80791 22.5902 8.88893 22.625C8.96995 22.6598 9.04323 22.7104 9.10448 22.7738L14.4167 28.0859C14.5095 28.1788 14.5727 28.2971 14.5983 28.4259C14.6239 28.5547 14.6108 28.6882 14.5605 28.8095C14.5103 28.9309 14.4252 29.0346 14.316 29.1075C14.2068 29.1805 14.0785 29.2195 13.9472 29.2195Z" fill="url(#paint12_linear_1_819)"/>
<path d="M33.8679 29.2196H13.9471C13.5801 29.2196 13.2831 28.9226 13.2831 28.5556C13.2831 28.1887 13.5801 27.8915 13.9471 27.8915H33.8679C33.9551 27.8915 34.0414 27.9086 34.122 27.942C34.2026 27.9753 34.2758 28.0242 34.3375 28.0859C34.3991 28.1476 34.448 28.2208 34.4814 28.3014C34.5147 28.382 34.5318 28.4684 34.5318 28.5556C34.5318 28.9226 34.2348 29.2196 33.8679 29.2196ZM33.8679 57.1084H13.9471C13.5801 57.1084 13.2831 56.8114 13.2831 56.4445C13.2831 56.0775 13.5801 55.7805 13.9471 55.7805H33.8679C33.9551 55.7804 34.0414 55.7976 34.122 55.8309C34.2026 55.8643 34.2758 55.9132 34.3375 55.9749C34.3991 56.0366 34.448 56.1098 34.4814 56.1904C34.5147 56.271 34.5318 56.3573 34.5318 56.4445C34.5318 56.5317 34.5147 56.6181 34.4813 56.6986C34.448 56.7792 34.3991 56.8524 34.3374 56.9141C34.2757 56.9757 34.2025 57.0246 34.122 57.058C34.0414 57.0913 33.9551 57.1085 33.8679 57.1084ZM13.9471 54.4525C13.5801 54.4525 13.2831 54.1555 13.2831 53.7884V31.2116C13.2831 30.8448 13.5801 30.5476 13.9471 30.5476C14.3142 30.5476 14.6112 30.8446 14.6112 31.2116V53.7884C14.6112 54.1555 14.3142 54.4525 13.9471 54.4525ZM41.172 23.9075C40.805 23.9075 40.508 23.6105 40.508 23.2434V16.6033C40.508 16.2362 40.805 15.9392 41.172 15.9392C41.5391 15.9392 41.8361 16.2362 41.8361 16.6033V23.2434C41.8361 23.6105 41.5391 23.9075 41.172 23.9075ZM41.172 69.0609C40.805 69.0609 40.508 68.7639 40.508 68.3968V61.7567C40.508 61.3896 40.805 61.0926 41.172 61.0926C41.5391 61.0926 41.8361 61.3896 41.8361 61.7567V68.3968C41.8361 68.7639 41.5391 69.0609 41.172 69.0609Z" fill="url(#paint13_linear_1_819)"/>
<defs>
<linearGradient id="paint0_linear_1_819" x1="41.172" y1="10.627" x2="41.172" y2="74.373" gradientUnits="userSpaceOnUse">
<stop stop-color="#FF7926"/>
<stop offset="1" stop-color="#EE9D00"/>
</linearGradient>
<linearGradient id="paint1_linear_1_819" x1="39.8439" y1="10.6272" x2="39.8439" y2="74.3731" gradientUnits="userSpaceOnUse">
<stop stop-color="#FF7926"/>
<stop offset="1" stop-color="#EE9D00"/>
</linearGradient>
<linearGradient id="paint2_linear_1_819" x1="42.5" y1="14.6111" x2="42.5" y2="70.389" gradientUnits="userSpaceOnUse">
<stop stop-color="#FF7926"/>
<stop offset="1" stop-color="#EE9D00"/>
</linearGradient>
<linearGradient id="paint3_linear_1_819" x1="84.3334" y1="14.6111" x2="84.3334" y2="70.389" gradientUnits="userSpaceOnUse">
<stop stop-color="#FF7926"/>
<stop offset="1" stop-color="#EE9D00"/>
</linearGradient>
<linearGradient id="paint4_linear_1_819" x1="45.1561" y1="63.7488" x2="45.1561" y2="70.3891" gradientUnits="userSpaceOnUse">
<stop stop-color="#FF7926"/>
<stop offset="1" stop-color="#EE9D00"/>
</linearGradient>
<linearGradient id="paint5_linear_1_819" x1="5.97888" y1="19.9231" x2="5.97888" y2="65.0767" gradientUnits="userSpaceOnUse">
<stop stop-color="#FF7926"/>
<stop offset="1" stop-color="#EE9D00"/>
</linearGradient>
<linearGradient id="paint6_linear_1_819" x1="30.547" y1="19.9231" x2="30.547" y2="49.8041" gradientUnits="userSpaceOnUse">
<stop stop-color="#FF7926"/>
<stop offset="1" stop-color="#EE9D00"/>
</linearGradient>
<linearGradient id="paint7_linear_1_819" x1="61.0926" y1="35.1958" x2="61.0926" y2="49.8042" gradientUnits="userSpaceOnUse">
<stop stop-color="#FF7926"/>
<stop offset="1" stop-color="#EE9D00"/>
</linearGradient>
<linearGradient id="paint8_linear_1_819" x1="29.8843" y1="41.1721" x2="29.8843" y2="74.3731" gradientUnits="userSpaceOnUse">
<stop stop-color="#FF7926"/>
<stop offset="1" stop-color="#EE9D00"/>
</linearGradient>
<linearGradient id="paint9_linear_1_819" x1="9.2989" y1="73.0449" x2="9.2989" y2="74.373" gradientUnits="userSpaceOnUse">
<stop stop-color="#FF7926"/>
<stop offset="1" stop-color="#EE9D00"/>
</linearGradient>
<linearGradient id="paint10_linear_1_819" x1="42.5001" y1="71.717" x2="42.5001" y2="74.3731" gradientUnits="userSpaceOnUse">
<stop stop-color="#FF7926"/>
<stop offset="1" stop-color="#EE9D00"/>
</linearGradient>
<linearGradient id="paint11_linear_1_819" x1="75.7011" y1="73.0449" x2="75.7011" y2="74.373" gradientUnits="userSpaceOnUse">
<stop stop-color="#FF7926"/>
<stop offset="1" stop-color="#EE9D00"/>
</linearGradient>
<linearGradient id="paint12_linear_1_819" x1="45.1521" y1="22.571" x2="45.1521" y2="74.3729" gradientUnits="userSpaceOnUse">
<stop stop-color="#FF7926"/>
<stop offset="1" stop-color="#EE9D00"/>
</linearGradient>
<linearGradient id="paint13_linear_1_819" x1="27.5596" y1="15.9392" x2="27.5596" y2="69.0609" gradientUnits="userSpaceOnUse">
<stop stop-color="#FF7926"/>
<stop offset="1" stop-color="#EE9D00"/>
</linearGradient>
</defs>
</svg>
