<svg width="85" height="85" viewBox="0 0 85 85" fill="none" xmlns="http://www.w3.org/2000/svg">
<path d="M21.9167 79.0185C21.8295 79.0186 21.7432 79.0015 21.6626 78.9681C21.582 78.9348 21.5088 78.8859 21.4472 78.8243C21.3855 78.7626 21.3366 78.6894 21.3033 78.6089C21.2699 78.5283 21.2528 78.442 21.2528 78.3548V6.64518C21.2528 6.27828 21.5498 5.98111 21.9167 5.98111C22.2838 5.98111 22.5808 6.27811 22.5808 6.64518V78.3546C22.5808 78.4418 22.5637 78.5282 22.5303 78.6088C22.497 78.6894 22.4481 78.7626 22.3864 78.8243C22.3247 78.8859 22.2515 78.9348 22.1709 78.9682C22.0903 79.0015 22.0039 79.0186 21.9167 79.0185ZM73.7069 4.65332H24.5726C24.2057 4.65332 23.9087 4.35632 23.9087 3.98926C23.9087 3.6222 24.2057 3.3252 24.5726 3.3252H73.7069C74.0738 3.3252 74.3708 3.6222 74.3708 3.98926C74.3708 4.35632 74.0738 4.65332 73.7069 4.65332ZM80.3467 81.6744C79.9797 81.6744 79.6827 81.3778 79.6827 81.0107V31.8762C79.6827 31.6999 79.7527 31.5312 79.8772 31.4069L83.6665 27.6176V9.96516H80.3467C79.9797 9.96516 79.6827 9.66815 79.6827 9.30109V3.98926C79.6827 3.62236 79.9797 3.3252 80.3467 3.3252C80.4339 3.32515 80.5203 3.3423 80.6009 3.37566C80.6815 3.40902 80.7547 3.45793 80.8163 3.51961C80.878 3.58128 80.9269 3.65451 80.9602 3.73509C80.9936 3.81568 81.0107 3.90205 81.0106 3.98926V8.6372H84.3304C84.6975 8.6372 84.9945 8.9342 84.9945 9.30109V27.8925C84.9945 27.9797 84.9773 28.0661 84.9439 28.1466C84.9105 28.2272 84.8616 28.3004 84.7999 28.362L81.0106 32.1513V81.0107C81.0107 81.0979 80.9935 81.1842 80.9602 81.2648C80.9268 81.3454 80.8779 81.4185 80.8163 81.4802C80.7546 81.5418 80.6814 81.5907 80.6008 81.6241C80.5203 81.6574 80.4339 81.6745 80.3467 81.6744Z" fill="url(#paint0_linear_1_812)"/>
<path d="M80.3467 81.6745H24.5726C24.2057 81.6745 23.9087 81.3779 23.9087 81.0108C23.9087 80.6438 24.2057 80.3467 24.5726 80.3467H80.3467C80.7136 80.3467 81.0106 80.6438 81.0106 81.0108C81.0106 81.3779 80.7136 81.6745 80.3467 81.6745ZM77.6908 76.363H24.5726C24.2057 76.363 23.9087 76.066 23.9087 75.699C23.9087 75.3319 24.2057 75.0349 24.5726 75.0349H77.6908C78.0577 75.0349 78.3547 75.3319 78.3547 75.699C78.3547 76.066 78.0577 76.363 77.6908 76.363ZM75.0349 79.0186H27.2285C26.8614 79.0186 26.5644 78.722 26.5644 78.3549C26.5644 77.9878 26.8614 77.6908 27.2285 77.6908H75.0349C75.4019 77.6908 75.6988 77.9878 75.6988 78.3549C75.6988 78.722 75.4019 79.0186 75.0349 79.0186Z" fill="url(#paint1_linear_1_812)"/>
<path d="M24.5727 81.6744C22.7422 81.6744 21.2528 80.1858 21.2528 78.3548C21.2528 76.5235 22.7422 75.0348 24.5727 75.0348C24.9397 75.0348 25.2367 75.3318 25.2367 75.6989C25.2367 76.0659 24.9397 76.3629 24.5727 76.3629C23.4743 76.3629 22.5808 77.2563 22.5808 78.3548C22.5808 79.453 23.4743 80.3466 24.5727 80.3466C24.9397 80.3466 25.2367 80.6436 25.2367 81.0107C25.2367 81.3778 24.9397 81.6744 24.5727 81.6744ZM21.9167 7.30924C21.8295 7.30928 21.7432 7.29213 21.6626 7.25877C21.582 7.22542 21.5088 7.1765 21.4471 7.11483C21.3855 7.05315 21.3366 6.97993 21.3032 6.89934C21.2699 6.81875 21.2528 6.73239 21.2528 6.64518C21.2528 4.81469 22.7422 3.3252 24.5727 3.3252C24.9397 3.3252 25.2367 3.6222 25.2367 3.98926C25.2367 4.35632 24.9397 4.65332 24.5727 4.65332C23.4743 4.65332 22.5808 5.54682 22.5808 6.64534C22.5808 6.73255 22.5637 6.81892 22.5303 6.89949C22.497 6.98007 22.4481 7.05328 22.3864 7.11494C22.3247 7.1766 22.2515 7.2255 22.1709 7.25884C22.0903 7.29218 22.0039 7.3093 21.9167 7.30924ZM81.6746 25.9005C81.5874 25.9005 81.501 25.8834 81.4204 25.85C81.3398 25.8167 81.2666 25.7678 81.205 25.7061C81.1433 25.6444 81.0944 25.5712 81.0611 25.4906C81.0277 25.41 81.0106 25.3236 81.0107 25.2364V13.285C81.0106 13.1978 81.0278 13.1114 81.0611 13.0309C81.0945 12.9503 81.1434 12.8771 81.205 12.8154C81.2667 12.7538 81.3399 12.7049 81.4204 12.6715C81.501 12.6382 81.5874 12.621 81.6746 12.6211C82.0416 12.6211 82.3386 12.9181 82.3386 13.285V25.2366C82.3387 25.3238 82.3215 25.4102 82.2882 25.4908C82.2548 25.5713 82.2059 25.6445 82.1442 25.7062C82.0825 25.7679 82.0093 25.8168 81.9287 25.8501C81.8481 25.8834 81.7618 25.9006 81.6746 25.9005ZM77.6908 76.3629C77.3238 76.3629 77.0268 76.0659 77.0268 75.6989V32.1513L73.2375 28.362C73.1758 28.3004 73.1269 28.2272 73.0935 28.1466C73.0601 28.0661 73.0429 27.9797 73.0429 27.8925V3.98926C73.0429 3.62236 73.3399 3.3252 73.707 3.3252C73.7942 3.32515 73.8806 3.3423 73.9611 3.37566C74.0417 3.40902 74.1149 3.45793 74.1766 3.51961C74.2382 3.58128 74.2871 3.65451 74.3205 3.73509C74.3538 3.81568 74.3709 3.90205 74.3709 3.98926V27.6176L78.1602 31.4069C78.2219 31.4685 78.2708 31.5417 78.3042 31.6222C78.3376 31.7027 78.3548 31.789 78.3547 31.8762V75.6987C78.3548 75.7859 78.3377 75.8723 78.3044 75.9529C78.271 76.0335 78.2221 76.1067 78.1605 76.1684C78.0988 76.2301 78.0256 76.279 77.945 76.3124C77.8644 76.3458 77.7781 76.363 77.6908 76.3629ZM80.3468 4.65332H76.3629C75.9958 4.65332 75.6988 4.35632 75.6988 3.98926C75.6988 3.6222 75.9958 3.3252 76.3629 3.3252H80.3468C80.7137 3.3252 81.0107 3.6222 81.0107 3.98926C81.0107 4.35632 80.7137 4.65332 80.3468 4.65332ZM19.2608 75.0348H0.66939C0.58218 75.0349 0.495816 75.0177 0.415238 74.9843C0.33466 74.951 0.261447 74.9021 0.199788 74.8404C0.138129 74.7787 0.0892316 74.7055 0.0558929 74.6249C0.0225542 74.5443 0.00542788 74.458 0.00549335 74.3708V17.5192C0.00553311 17.3726 0.0541001 17.2301 0.143618 17.114L5.45479 10.224C5.51672 10.1434 5.59635 10.0782 5.68752 10.0334C5.77869 9.9885 5.87896 9.96522 5.98056 9.96532H19.2607C19.6277 9.96532 19.9247 10.2623 19.9247 10.6292C19.9247 10.9963 19.6277 11.2933 19.2607 11.2933H6.30745L1.33345 17.7455V73.707H19.2607C19.6277 73.707 19.9247 74.0037 19.9247 74.3708C19.9247 74.7378 19.6279 75.0348 19.2608 75.0348Z" fill="url(#paint2_linear_1_812)"/>
<path d="M7.3092 17.9329C6.94214 17.9329 6.64514 17.6359 6.64514 17.2689V13.285C6.6451 13.1978 6.66225 13.1114 6.6956 13.0308C6.72896 12.9503 6.77788 12.877 6.83955 12.8154C6.90123 12.7537 6.97445 12.7048 7.05504 12.6715C7.13563 12.6382 7.22199 12.621 7.3092 12.6211C7.3964 12.6211 7.48275 12.6382 7.56332 12.6715C7.64389 12.7049 7.71709 12.7538 7.77875 12.8154C7.8404 12.8771 7.8893 12.9503 7.92265 13.0309C7.956 13.1114 7.97314 13.1978 7.9731 13.285V17.2689C7.9731 17.6359 7.67626 17.9329 7.3092 17.9329Z" fill="url(#paint3_linear_1_812)"/>
<path d="M7.30915 17.9331H3.32527C2.95838 17.9331 2.66138 17.6361 2.66138 17.269C2.66138 16.902 2.95838 16.605 3.32527 16.605H7.30915C7.67605 16.605 7.97305 16.902 7.97305 17.269C7.97305 17.6361 7.67621 17.9331 7.30915 17.9331ZM19.2608 33.8684H8.63711C8.27005 33.8684 7.97305 33.5714 7.97305 33.2044C7.973 33.1172 7.99015 33.0308 8.02351 32.9502C8.05687 32.8697 8.10578 32.7964 8.16746 32.7348C8.22913 32.6731 8.30236 32.6242 8.38294 32.5909C8.46353 32.5575 8.5499 32.5404 8.63711 32.5405H19.2606C19.6277 32.5405 19.9247 32.8375 19.9247 33.2044C19.9248 33.2916 19.9077 33.378 19.8743 33.4586C19.841 33.5392 19.7921 33.6124 19.7304 33.6741C19.6688 33.7358 19.5955 33.7847 19.515 33.818C19.4344 33.8514 19.348 33.8685 19.2608 33.8684ZM19.2608 39.1803H8.63711C8.27005 39.1803 7.97305 38.8833 7.97305 38.5162C7.97305 38.1492 8.27005 37.8522 8.63711 37.8522H19.2606C19.6277 37.8522 19.9247 38.1492 19.9247 38.5162C19.9247 38.8833 19.6278 39.1803 19.2608 39.1803ZM19.2608 44.492H8.63711C8.27005 44.492 7.97305 44.195 7.97305 43.8282C7.97305 43.4612 8.27005 43.1642 8.63711 43.1642H19.2606C19.6277 43.1642 19.9247 43.4612 19.9247 43.8282C19.9247 43.9154 19.9076 44.0018 19.8742 44.0823C19.8409 44.1629 19.792 44.2361 19.7303 44.2977C19.6687 44.3593 19.5954 44.4082 19.5149 44.4416C19.4343 44.4749 19.348 44.492 19.2608 44.492ZM19.2608 49.8038H8.63711C8.27005 49.8038 7.97305 49.5068 7.97305 49.1397C7.97303 49.0525 7.99019 48.9662 8.02356 48.8856C8.05693 48.8051 8.10584 48.7319 8.16752 48.6702C8.22919 48.6086 8.30241 48.5597 8.38298 48.5264C8.46356 48.4931 8.54991 48.4759 8.63711 48.476H19.2606C19.6277 48.476 19.9247 48.773 19.9247 49.1397C19.9248 49.2269 19.9077 49.3133 19.8743 49.3939C19.841 49.4745 19.7921 49.5477 19.7304 49.6094C19.6688 49.6711 19.5955 49.72 19.515 49.7534C19.4344 49.7867 19.348 49.8039 19.2608 49.8038ZM19.2608 55.1156H8.63711C8.27005 55.1156 7.97305 54.8186 7.97305 54.4516C7.97305 54.0845 8.27005 53.7878 8.63711 53.7878H19.2606C19.6277 53.7878 19.9247 54.0845 19.9247 54.4516C19.9247 54.8186 19.6278 55.1156 19.2608 55.1156ZM69.7231 47.1479H29.8845C29.5174 47.1479 29.2204 46.8509 29.2204 46.4838V41.1721C29.2204 40.8051 29.5174 40.5081 29.8845 40.5081H69.7231C70.0901 40.5081 70.3871 40.8051 70.3871 41.1721V46.4838C70.3871 46.8509 70.09 47.1479 69.7231 47.1479ZM30.5484 45.8201H69.059V41.836H30.5484V45.8201Z" fill="url(#paint4_linear_1_812)"/>
<path d="M67.067 44.4919H32.5404C32.1733 44.4919 31.8763 44.1949 31.8763 43.8281C31.8763 43.4611 32.1733 43.1641 32.5404 43.1641H67.067C67.4341 43.1641 67.7311 43.4611 67.7311 43.8281C67.7311 43.9153 67.7139 44.0017 67.6806 44.0822C67.6472 44.1628 67.5983 44.236 67.5366 44.2976C67.4749 44.3593 67.4017 44.4081 67.3211 44.4415C67.2406 44.4748 67.1542 44.4919 67.067 44.4919Z" fill="url(#paint5_linear_1_812)"/>
<defs>
<linearGradient id="paint0_linear_1_812" x1="53.1237" y1="3.3252" x2="53.1237" y2="81.6744" gradientUnits="userSpaceOnUse">
<stop stop-color="#FF7926"/>
<stop offset="1" stop-color="#EE9D00"/>
</linearGradient>
<linearGradient id="paint1_linear_1_812" x1="52.4596" y1="75.0349" x2="52.4596" y2="81.6745" gradientUnits="userSpaceOnUse">
<stop stop-color="#FF7926"/>
<stop offset="1" stop-color="#EE9D00"/>
</linearGradient>
<linearGradient id="paint2_linear_1_812" x1="41.1721" y1="3.3252" x2="41.1721" y2="81.6744" gradientUnits="userSpaceOnUse">
<stop stop-color="#FF7926"/>
<stop offset="1" stop-color="#EE9D00"/>
</linearGradient>
<linearGradient id="paint3_linear_1_812" x1="7.30912" y1="12.6211" x2="7.30912" y2="17.9329" gradientUnits="userSpaceOnUse">
<stop stop-color="#FF7926"/>
<stop offset="1" stop-color="#EE9D00"/>
</linearGradient>
<linearGradient id="paint4_linear_1_812" x1="36.5243" y1="16.605" x2="36.5243" y2="55.1156" gradientUnits="userSpaceOnUse">
<stop stop-color="#FF7926"/>
<stop offset="1" stop-color="#EE9D00"/>
</linearGradient>
<linearGradient id="paint5_linear_1_812" x1="49.8037" y1="43.1641" x2="49.8037" y2="44.4919" gradientUnits="userSpaceOnUse">
<stop stop-color="#FF7926"/>
<stop offset="1" stop-color="#EE9D00"/>
</linearGradient>
</defs>
</svg>
