<svg width="85" height="85" viewBox="0 0 85 85" fill="none" xmlns="http://www.w3.org/2000/svg">
<path d="M82.6747 84.9949H1.66406C1.297 84.9949 1 84.6979 1 84.3308V75.0346C1 69.3346 3.95242 67.152 9.40006 65.1158C15.1357 62.9732 19.697 60.9928 22.5905 59.3886C22.6665 59.3458 22.7503 59.3185 22.8369 59.3083C22.9236 59.298 23.0114 59.3051 23.0953 59.3289C23.1792 59.3528 23.2576 59.3931 23.3259 59.4474C23.3942 59.5017 23.451 59.569 23.4931 59.6454C23.6714 59.9672 23.5554 60.3717 23.235 60.5481C20.2845 62.1861 15.661 64.1951 9.8644 66.3609C4.75843 68.2673 2.32796 70.052 2.32796 75.0347V83.6671H82.0106V75.0347C82.0106 70.052 79.5802 68.2673 74.4742 66.3609C68.5783 64.1536 64.0795 62.1992 61.103 60.5494C60.9489 60.464 60.8351 60.321 60.7865 60.1517C60.7379 59.9825 60.7584 59.8009 60.8436 59.6468C60.8858 59.5704 60.9427 59.5031 61.0109 59.4487C61.0791 59.3943 61.1574 59.3539 61.2412 59.3298C61.3251 59.3057 61.4129 59.2984 61.4996 59.3083C61.5863 59.3182 61.6702 59.3451 61.7464 59.3874C64.6658 61.0059 69.1051 62.9344 74.94 65.116C80.3872 67.1522 83.3389 69.3348 83.3389 75.0347V84.331C83.3389 84.4182 83.3217 84.5045 83.2884 84.5851C83.255 84.6657 83.206 84.7389 83.1444 84.8005C83.0827 84.8622 83.0095 84.9111 82.9289 84.9444C82.8483 84.9778 82.7619 84.9949 82.6747 84.9949Z" fill="url(#paint0_linear_1_776)"/>
<path d="M42.1694 61.09C32.9477 61.09 18.2646 48.0222 18.2646 32.5371C18.2646 32.17 18.5617 31.873 18.9287 31.873C19.2956 31.873 19.5928 32.17 19.5928 32.5371C19.5928 47.3024 33.4601 59.762 42.1696 59.762C50.8797 59.762 64.7464 47.3024 64.7464 32.5371C64.7464 32.17 65.0434 31.873 65.4104 31.873C65.4976 31.873 65.584 31.8902 65.6646 31.9235C65.7452 31.9569 65.8184 32.0058 65.88 32.0675C65.9417 32.1291 65.9906 32.2024 66.0239 32.2829C66.0573 32.3635 66.0744 32.4499 66.0743 32.5371C66.0742 48.0222 51.3904 61.09 42.1694 61.09ZM42.2089 66.4021C41.8425 66.4021 41.5384 66.1051 41.5384 65.7382C41.5384 65.3712 41.8289 65.0742 42.196 65.0742H42.2089C42.576 65.0742 42.873 65.3712 42.873 65.7382C42.873 65.8255 42.8559 65.9118 42.8225 65.9924C42.7892 66.073 42.7402 66.1462 42.6786 66.2078C42.6169 66.2695 42.5437 66.3184 42.4631 66.3517C42.3825 66.3851 42.2961 66.4022 42.2089 66.4021ZM42.2089 71.7143C41.8425 71.7143 41.5384 71.4173 41.5384 71.0504C41.5384 70.6833 41.8289 70.3863 42.196 70.3863H42.2089C42.576 70.3863 42.873 70.6833 42.873 71.0504C42.873 71.1376 42.8559 71.224 42.8225 71.3046C42.7892 71.3851 42.7402 71.4584 42.6786 71.52C42.6169 71.5817 42.5437 71.6306 42.4631 71.6639C42.3825 71.6972 42.2961 71.7144 42.2089 71.7143ZM42.2089 77.0265C41.8425 77.0265 41.5384 76.7295 41.5384 76.3626C41.5384 75.9955 41.8289 75.6985 42.196 75.6985H42.2089C42.576 75.6985 42.873 75.9955 42.873 76.3626C42.873 76.4498 42.8559 76.5362 42.8225 76.6167C42.7892 76.6973 42.7402 76.7705 42.6786 76.8322C42.6169 76.8938 42.5437 76.9427 42.4631 76.9761C42.3825 77.0094 42.2961 77.0265 42.2089 77.0265ZM42.2089 82.3386C41.8425 82.3386 41.5384 82.0416 41.5384 81.6747C41.5384 81.3077 41.8289 81.0107 42.196 81.0107H42.2089C42.576 81.0107 42.873 81.3077 42.873 81.6747C42.873 81.762 42.8559 81.8483 42.8225 81.9289C42.7892 82.0095 42.7402 82.0827 42.6786 82.1443C42.6169 82.206 42.5437 82.2549 42.4631 82.2882C42.3825 82.3216 42.2961 82.3387 42.2089 82.3386Z" fill="url(#paint1_linear_1_776)"/>
<path d="M58.77 58.4342C58.403 58.4342 58.106 58.1372 58.106 57.7702V55.1141C58.106 54.7472 58.403 54.4502 58.77 54.4502C59.1371 54.4502 59.4341 54.7472 59.4341 55.1141V57.7702C59.4341 58.1372 59.1371 58.4342 58.77 58.4342Z" fill="url(#paint2_linear_1_776)"/>
<path d="M52.1296 67.7305C51.9909 67.7309 51.8556 67.6873 51.7432 67.606C51.6722 67.5553 51.6119 67.4911 51.5658 67.4171C51.5197 67.3431 51.4887 67.2608 51.4744 67.1747C51.4602 67.0887 51.4631 67.0007 51.483 66.9158C51.5028 66.8309 51.5392 66.7508 51.5901 66.68L58.2304 57.3836C58.3333 57.2411 58.4884 57.145 58.6619 57.1163C58.8353 57.0877 59.0131 57.1287 59.1564 57.2305C59.2274 57.2812 59.2876 57.3454 59.3337 57.4194C59.3799 57.4934 59.4109 57.5757 59.4251 57.6618C59.4394 57.7478 59.4365 57.8358 59.4166 57.9207C59.3968 58.0056 59.3604 58.0857 59.3095 58.1565L52.6692 67.4529C52.6081 67.539 52.5271 67.6092 52.4332 67.6575C52.3394 67.7058 52.2352 67.7308 52.1296 67.7305Z" fill="url(#paint3_linear_1_776)"/>
<path d="M52.1297 67.7306C52.0266 67.7304 51.925 67.7064 51.8327 67.6606L43.8646 63.6763C43.7866 63.6374 43.717 63.5834 43.6598 63.5175C43.6026 63.4517 43.559 63.3752 43.5314 63.2924C43.5038 63.2097 43.4928 63.1223 43.499 63.0353C43.5052 62.9483 43.5285 62.8633 43.5676 62.7853C43.6465 62.628 43.7846 62.5083 43.9516 62.4526C44.1186 62.3969 44.3009 62.4098 44.4584 62.4883L52.4267 66.4725C52.5269 66.4726 52.6257 66.4952 52.7159 66.5389C52.8061 66.5825 52.8852 66.646 52.9473 66.7246C53.0095 66.8031 53.0531 66.8947 53.0748 66.9925C53.0965 67.0903 53.0959 67.1917 53.0729 67.2892C53.0499 67.3867 53.0051 67.4777 52.9419 67.5554C52.8787 67.6332 52.7988 67.6956 52.7081 67.7381C52.6173 67.7805 52.5182 67.8019 52.418 67.8006C52.3179 67.7993 52.2193 67.7754 52.1297 67.7306ZM25.5688 58.4342C25.202 58.4342 24.9048 58.1372 24.9048 57.7702V55.1141C24.9047 55.0269 24.9219 54.9405 24.9552 54.8599C24.9886 54.7794 25.0375 54.7062 25.0992 54.6445C25.1609 54.5828 25.2341 54.5339 25.3147 54.5006C25.3953 54.4673 25.4816 54.4501 25.5688 54.4502C25.9359 54.4502 26.2329 54.7472 26.2329 55.1141V57.7702C26.2329 58.1372 25.9359 58.4342 25.5688 58.4342Z" fill="url(#paint4_linear_1_776)"/>
<path d="M32.2099 67.7304C32.1042 67.7307 31.9998 67.7057 31.9057 67.6574C31.8116 67.6091 31.7305 67.539 31.6691 67.4528L25.0288 58.1564C24.9781 58.0855 24.9418 58.0053 24.9222 57.9204C24.9025 57.8354 24.8997 57.7474 24.9141 57.6614C24.9284 57.5754 24.9595 57.4931 25.0057 57.4191C25.0519 57.3452 25.1122 57.281 25.1832 57.2304C25.254 57.1796 25.3341 57.1432 25.419 57.1233C25.5039 57.1035 25.5919 57.1006 25.6779 57.1148C25.764 57.1291 25.8463 57.1601 25.9203 57.2062C25.9943 57.2523 26.0585 57.3125 26.1092 57.3835L32.7495 66.6799C32.8002 66.7508 32.8364 66.831 32.8561 66.9159C32.8758 67.0009 32.8785 67.0888 32.8642 67.1748C32.8499 67.2608 32.8188 67.3431 32.7726 67.4171C32.7265 67.4911 32.6662 67.5552 32.5953 67.6059C32.4832 67.687 32.3483 67.7306 32.2099 67.7304Z" fill="url(#paint5_linear_1_776)"/>
<path d="M32.2099 67.7302C32.0865 67.7302 31.9655 67.6959 31.8605 67.6311C31.7555 67.5663 31.6706 67.4735 31.6153 67.3632C31.5762 67.2852 31.5529 67.2002 31.5467 67.1132C31.5405 67.0262 31.5515 66.9389 31.5791 66.8561C31.6067 66.7733 31.6503 66.6968 31.7075 66.631C31.7646 66.5651 31.8342 66.5111 31.9123 66.4722L39.8805 62.4879C40.0381 62.4093 40.2204 62.3965 40.3875 62.4522C40.5545 62.5078 40.6926 62.6275 40.7715 62.785C40.8106 62.8629 40.8339 62.9479 40.8401 63.0349C40.8463 63.1219 40.8353 63.2093 40.8077 63.292C40.7801 63.3748 40.7365 63.4513 40.6793 63.5171C40.6222 63.583 40.5526 63.637 40.4745 63.676L32.5063 67.6602C32.4142 67.7059 32.3128 67.7299 32.2099 67.7302ZM18.9289 30.5449C18.7634 30.5448 18.6039 30.483 18.4816 30.3716C18.3593 30.2602 18.283 30.1071 18.2675 29.9424C17.4341 21.0448 19.3406 13.9767 23.9337 8.93363C30.658 1.54976 41.6871 0 49.7565 0C54.4697 0 57.9699 0.544033 58.3538 0.606289C58.4965 0.629497 58.6277 0.698638 58.7276 0.803214C58.8274 0.90779 58.8904 1.04209 58.907 1.18572C58.9236 1.32936 58.8928 1.47448 58.8194 1.59905C58.7461 1.72363 58.634 1.82086 58.5003 1.87598C53.7511 3.83048 54.5215 8.55777 54.9182 10.0984C55.072 10.0916 55.226 10.0882 55.3799 10.0881C57.2668 10.0881 60.8257 10.548 63.4611 13.6262C66.3545 17.006 67.2313 22.5094 66.0665 29.9836C66.0455 30.118 65.9838 30.2426 65.8896 30.3407C65.7954 30.4389 65.6733 30.5057 65.5399 30.5321C65.2652 30.5905 64.9901 30.464 64.8436 30.2275L59.3019 21.1658C57.2008 21.9796 49.3338 24.8218 41.9801 24.8218C34.6487 24.8218 26.8782 21.9952 24.7713 21.1723L19.5026 30.2152C19.4442 30.3155 19.3604 30.3988 19.2598 30.4566C19.1591 30.5145 19.045 30.5449 18.9289 30.5449ZM59.5756 19.678C59.8001 19.678 60.0179 19.7927 60.1422 19.9958L65.0032 27.9426C65.7048 21.8095 64.8488 17.289 62.4533 14.4897C60.163 11.8155 57.0387 11.4161 55.3801 11.4161C54.8651 11.4161 54.545 11.4569 54.5243 11.4602C54.213 11.4997 53.9095 11.3183 53.8058 11.02C53.7823 10.9525 51.7565 4.91722 56.1662 1.66331C54.6606 1.50327 52.4076 1.32812 49.7568 1.32812C41.9552 1.32812 31.3133 2.80268 24.9157 9.82812C20.9543 14.1774 19.1173 20.1764 19.4427 27.6803L23.9125 20.0084C23.9936 19.8692 24.1224 19.7642 24.2751 19.7129C24.4278 19.6616 24.5939 19.6675 24.7426 19.7295C24.8327 19.7671 33.854 23.4937 41.9805 23.4937C50.1096 23.4937 59.2308 19.7663 59.323 19.7288C59.4029 19.6951 59.4889 19.6779 59.5756 19.678ZM44.1616 84.9947C44.0744 84.9947 43.988 84.9776 43.9074 84.9442C43.8268 84.9109 43.7536 84.862 43.692 84.8003C43.6303 84.7386 43.5814 84.6654 43.5481 84.5848C43.5147 84.5042 43.4976 84.4178 43.4977 84.3306V65.7382C43.4977 65.3711 43.7947 65.0741 44.1616 65.0741C44.5286 65.0741 44.8256 65.3711 44.8256 65.7382V84.3306C44.8256 84.6977 44.5286 84.9947 44.1616 84.9947ZM40.1775 84.9947C39.8105 84.9947 39.5135 84.6977 39.5135 84.3306V65.7382C39.5135 65.3711 39.8105 65.0741 40.1775 65.0741C40.5446 65.0741 40.8416 65.3711 40.8416 65.7382V84.3306C40.8416 84.4178 40.8245 84.5042 40.7911 84.5848C40.7578 84.6654 40.7089 84.7386 40.6472 84.8003C40.5855 84.862 40.5123 84.9109 40.4317 84.9442C40.3511 84.9776 40.2648 84.9947 40.1775 84.9947ZM68.0663 79.6825H54.7859C54.419 79.6825 54.122 79.3855 54.122 79.0185C54.122 78.6514 54.419 78.3546 54.7859 78.3546H68.0663C68.4334 78.3546 68.7304 78.6514 68.7304 79.0185C68.7304 79.3855 68.4334 79.6825 68.0663 79.6825Z" fill="url(#paint6_linear_1_776)"/>
<path d="M54.7857 82.339C54.6985 82.3391 54.6122 82.3219 54.5316 82.2886C54.451 82.2552 54.3778 82.2063 54.3162 82.1447C54.2545 82.083 54.2056 82.0098 54.1723 81.9292C54.1389 81.8487 54.1218 81.7623 54.1218 81.6751V79.0189C54.1218 78.9317 54.1389 78.8453 54.1723 78.7648C54.2056 78.6842 54.2545 78.611 54.3162 78.5493C54.3778 78.4877 54.451 78.4388 54.5316 78.4054C54.6122 78.3721 54.6985 78.3549 54.7857 78.355C55.1528 78.355 55.4498 78.6518 55.4498 79.0189V81.6751C55.4498 81.7623 55.4327 81.8487 55.3993 81.9293C55.366 82.0099 55.317 82.0831 55.2554 82.1447C55.1937 82.2064 55.1205 82.2553 55.0399 82.2886C54.9593 82.322 54.8729 82.3391 54.7857 82.339Z" fill="url(#paint7_linear_1_776)"/>
<path d="M68.0662 82.339C67.979 82.3391 67.8927 82.3219 67.8121 82.2886C67.7316 82.2552 67.6584 82.2063 67.5967 82.1447C67.535 82.083 67.4861 82.0098 67.4528 81.9292C67.4194 81.8487 67.4023 81.7623 67.4023 81.6751V79.0189C67.4023 78.6518 67.6992 78.355 68.0662 78.355C68.4333 78.355 68.7303 78.6518 68.7303 79.0189V81.6751C68.7303 81.7623 68.7132 81.8487 68.6798 81.9293C68.6465 82.0099 68.5976 82.0831 68.5359 82.1447C68.4742 82.2064 68.401 82.2553 68.3204 82.2886C68.2398 82.322 68.1534 82.3391 68.0662 82.339Z" fill="url(#paint8_linear_1_776)"/>
<path d="M56.1139 78.3548C55.9826 78.3548 55.8542 78.3158 55.745 78.2428C55.6358 78.1699 55.5507 78.0662 55.5005 77.9448C55.4502 77.8235 55.4371 77.69 55.4627 77.5612C55.4883 77.4324 55.5515 77.3141 55.6444 77.2212L59.6286 73.237C59.754 73.117 59.9215 73.0509 60.095 73.0528C60.2686 73.0547 60.4346 73.1245 60.5573 73.2473C60.6801 73.37 60.7499 73.536 60.7517 73.7096C60.7536 73.8832 60.6875 74.0506 60.5674 74.176L56.5834 78.1602C56.5218 78.222 56.4486 78.271 56.3681 78.3044C56.2875 78.3378 56.2011 78.3549 56.1139 78.3548Z" fill="url(#paint9_linear_1_776)"/>
<path d="M64.0822 78.3548C63.995 78.3549 63.9087 78.3377 63.8281 78.3044C63.7475 78.271 63.6743 78.222 63.6128 78.1602L59.6287 74.176C59.5087 74.0506 59.4425 73.8832 59.4444 73.7096C59.4463 73.536 59.516 73.37 59.6388 73.2473C59.7615 73.1245 59.9275 73.0547 60.1011 73.0528C60.2747 73.0509 60.4421 73.117 60.5675 73.237L64.5517 77.2212C64.6446 77.3141 64.7078 77.4324 64.7334 77.5612C64.759 77.69 64.7459 77.8235 64.6956 77.9448C64.6454 78.0662 64.5603 78.1699 64.4511 78.2428C64.3419 78.3158 64.2136 78.3548 64.0822 78.3548Z" fill="url(#paint10_linear_1_776)"/>
<path d="M66.7382 78.3547C66.651 78.3548 66.5646 78.3376 66.4841 78.3042C66.4035 78.2708 66.3303 78.2219 66.2687 78.1601L62.2845 74.1759C62.2211 74.1146 62.1705 74.0414 62.1357 73.9603C62.1009 73.8793 62.0826 73.7922 62.0818 73.704C62.081 73.6158 62.0979 73.5284 62.1312 73.4468C62.1646 73.3652 62.2139 73.291 62.2763 73.2287C62.3386 73.1663 62.4128 73.117 62.4944 73.0836C62.576 73.0502 62.6634 73.0334 62.7516 73.0342C62.8398 73.035 62.9269 73.0533 63.0079 73.0881C63.089 73.1229 63.1622 73.1735 63.2235 73.2369L67.2077 77.2211C67.3006 77.314 67.3638 77.4323 67.3894 77.5611C67.415 77.6899 67.4018 77.8234 67.3516 77.9447C67.3013 78.066 67.2163 78.1697 67.1071 78.2427C66.9979 78.3157 66.8695 78.3546 66.7382 78.3547Z" fill="url(#paint11_linear_1_776)"/>
<defs>
<linearGradient id="paint0_linear_1_776" x1="42.1695" y1="59.3037" x2="42.1695" y2="84.9949" gradientUnits="userSpaceOnUse">
<stop stop-color="#FF7926"/>
<stop offset="1" stop-color="#EE9D00"/>
</linearGradient>
<linearGradient id="paint1_linear_1_776" x1="42.1695" y1="31.873" x2="42.1695" y2="82.3386" gradientUnits="userSpaceOnUse">
<stop stop-color="#FF7926"/>
<stop offset="1" stop-color="#EE9D00"/>
</linearGradient>
<linearGradient id="paint2_linear_1_776" x1="58.77" y1="54.4502" x2="58.77" y2="58.4342" gradientUnits="userSpaceOnUse">
<stop stop-color="#FF7926"/>
<stop offset="1" stop-color="#EE9D00"/>
</linearGradient>
<linearGradient id="paint3_linear_1_776" x1="55.4498" y1="57.1074" x2="55.4498" y2="67.7305" gradientUnits="userSpaceOnUse">
<stop stop-color="#FF7926"/>
<stop offset="1" stop-color="#EE9D00"/>
</linearGradient>
<linearGradient id="paint4_linear_1_776" x1="38.9977" y1="54.4502" x2="38.9977" y2="67.8007" gradientUnits="userSpaceOnUse">
<stop stop-color="#FF7926"/>
<stop offset="1" stop-color="#EE9D00"/>
</linearGradient>
<linearGradient id="paint5_linear_1_776" x1="28.8891" y1="57.106" x2="28.8891" y2="67.7304" gradientUnits="userSpaceOnUse">
<stop stop-color="#FF7926"/>
<stop offset="1" stop-color="#EE9D00"/>
</linearGradient>
<linearGradient id="paint6_linear_1_776" x1="43.4038" y1="0" x2="43.4038" y2="84.9947" gradientUnits="userSpaceOnUse">
<stop stop-color="#FF7926"/>
<stop offset="1" stop-color="#EE9D00"/>
</linearGradient>
<linearGradient id="paint7_linear_1_776" x1="54.7858" y1="78.355" x2="54.7858" y2="82.339" gradientUnits="userSpaceOnUse">
<stop stop-color="#FF7926"/>
<stop offset="1" stop-color="#EE9D00"/>
</linearGradient>
<linearGradient id="paint8_linear_1_776" x1="68.0663" y1="78.355" x2="68.0663" y2="82.339" gradientUnits="userSpaceOnUse">
<stop stop-color="#FF7926"/>
<stop offset="1" stop-color="#EE9D00"/>
</linearGradient>
<linearGradient id="paint9_linear_1_776" x1="58.1009" y1="73.0527" x2="58.1009" y2="78.3548" gradientUnits="userSpaceOnUse">
<stop stop-color="#FF7926"/>
<stop offset="1" stop-color="#EE9D00"/>
</linearGradient>
<linearGradient id="paint10_linear_1_776" x1="62.0953" y1="73.0527" x2="62.0953" y2="78.3548" gradientUnits="userSpaceOnUse">
<stop stop-color="#FF7926"/>
<stop offset="1" stop-color="#EE9D00"/>
</linearGradient>
<linearGradient id="paint11_linear_1_776" x1="64.742" y1="73.0342" x2="64.742" y2="78.3547" gradientUnits="userSpaceOnUse">
<stop stop-color="#FF7926"/>
<stop offset="1" stop-color="#EE9D00"/>
</linearGradient>
</defs>
</svg>
