<svg width="212" height="55" viewBox="0 0 212 55" fill="none" xmlns="http://www.w3.org/2000/svg">
<path fill-rule="evenodd" clip-rule="evenodd" d="M31.5071 0L63.0143 54.572C55.4119 54.572 48.7827 50.1048 42.4308 45.8245C41.9835 45.5231 41.5375 45.2226 41.0927 44.9247C36.4949 41.8449 30.8134 40.3631 24.2308 41.7594C29.6107 38.7467 35.6198 38.5958 41.005 39.2286L31.5071 22.7779L16.3472 49.0357C26.129 49.0357 32.2791 46.6123 34.6707 43.0249C31.1908 55.3629 13.1508 54.572 13.1508 54.572H0L31.5071 0ZM82.2758 33.6712C82.8529 33.6712 83.2553 33.6256 83.4831 33.5345C83.726 33.4434 83.8475 33.208 83.8475 32.8284C83.8475 32.4488 83.4451 31.158 82.6403 28.9562H75.693C75.0401 30.8847 74.7136 32.0995 74.7136 32.6006C74.7136 33.0865 74.8351 33.3903 75.078 33.5117C75.3362 33.618 75.7917 33.6712 76.4447 33.6712L76.4903 33.9445H71.3652L71.4108 33.6712C71.8512 33.6712 72.1928 33.6332 72.4358 33.5573C72.6939 33.4814 72.9673 33.284 73.2558 32.9651C73.5595 32.631 73.848 32.1527 74.1214 31.5301C74.3947 30.9075 74.7212 30.0343 75.1008 28.9106L77.128 23.0567C77.8417 20.9915 78.1986 19.7387 78.1986 19.2983C78.1986 18.858 78.0923 18.577 77.8797 18.4556C77.6671 18.3189 77.2571 18.2506 76.6497 18.2506L76.6041 18H80.3625L84.3942 28.9106C85.0775 30.7176 85.5331 31.8641 85.7608 32.3501C86.0038 32.836 86.2316 33.1473 86.4442 33.284C86.8238 33.5421 87.3022 33.6712 87.8792 33.6712L87.9248 33.9445H82.2303L82.2758 33.6712ZM79.0869 19.23L75.8753 28.4095H82.4581L79.0869 19.23ZM105.88 23.1478V28.7967C105.88 30.4215 105.925 31.5301 106.017 32.1223C106.123 32.7145 106.267 33.0865 106.449 33.2384C106.799 33.5269 107.353 33.6712 108.112 33.6712L108.158 33.9445H102.053L102.099 33.6712C102.843 33.6712 103.39 33.5345 103.739 33.2612C104.027 33.0334 104.194 32.2893 104.24 31.0289C104.27 30.5278 104.285 29.7838 104.285 28.7967V19.1617L97.9077 33.7167L91.3249 21.3939V28.7512C91.3249 30.2697 91.3932 31.3706 91.5299 32.0539C91.6817 32.7221 91.9171 33.1625 92.236 33.3751C92.5549 33.5725 93.0864 33.6712 93.8304 33.6712L93.876 33.9445H88.2726L88.3182 33.6712C88.8801 33.6712 89.2977 33.6332 89.571 33.5573C89.8595 33.4662 90.1025 33.2384 90.2999 32.874C90.4973 32.5095 90.6188 32.0236 90.6643 31.4162C90.7251 30.8088 90.7554 29.9204 90.7554 28.7512V23.1706C90.7554 22.0013 90.7251 21.113 90.6643 20.5056C90.6188 19.8982 90.4973 19.4122 90.2999 19.0478C90.1025 18.6833 89.8595 18.4632 89.571 18.3872C89.2977 18.2961 88.8801 18.2506 88.3182 18.2506L88.2726 18H91.3249L98.3632 31.2795L104.172 18H108.158L108.112 18.2506C107.353 18.2506 106.799 18.3948 106.449 18.6833C106.07 19.0022 105.88 20.4904 105.88 23.1478ZM120.541 32.8512C121.71 32.1223 122.294 30.9986 122.294 29.48C122.294 28.7815 122.143 28.1589 121.839 27.6123C121.535 27.0656 121.133 26.6252 120.632 26.2911C119.69 25.6837 118.627 25.3193 117.443 25.1978C118.46 24.97 119.333 24.5676 120.062 23.9906C120.791 23.4135 121.156 22.6163 121.156 21.5989C121.156 20.8548 120.951 20.2246 120.541 19.7083C120.131 19.1769 119.599 18.8048 118.946 18.5922C117.792 18.1974 116.653 18 115.529 18H110.427L110.473 18.2733C110.852 18.2733 111.148 18.2885 111.361 18.3189C111.574 18.3493 111.771 18.4328 111.953 18.5694C112.151 18.7061 112.295 18.8656 112.386 19.0478C112.599 19.5033 112.705 20.87 112.705 23.1478V28.7967C112.705 30.4215 112.667 31.4997 112.591 32.0312C112.53 32.4412 112.454 32.7373 112.363 32.9195C112.287 33.0865 112.151 33.2384 111.953 33.3751C111.771 33.5117 111.574 33.5952 111.361 33.6256C111.148 33.656 110.852 33.6712 110.473 33.6712L110.427 33.9445H115.78C117.8 33.9445 119.386 33.5801 120.541 32.8512ZM114.299 18.5239C117.549 18.5239 119.174 19.5489 119.174 21.5989C119.174 23.8919 117.617 25.0384 114.504 25.0384H114.299V18.5239ZM114.641 25.4939C118.422 25.4939 120.313 26.8226 120.313 29.48C120.313 30.1938 120.161 30.8088 119.857 31.3251C119.569 31.8414 119.227 32.2286 118.832 32.4867C118.453 32.7449 117.936 32.9651 117.283 33.1473C116.646 33.3295 115.947 33.4206 115.188 33.4206C114.793 33.2384 114.542 32.8967 114.436 32.3956C114.345 31.8793 114.299 30.7936 114.299 29.1384V25.4939H114.641ZM135.988 33.9445H124.508L124.553 33.6712C125.312 33.6712 125.867 33.5269 126.216 33.2384C126.596 32.9195 126.785 31.4389 126.785 28.7967V23.1478C126.785 21.523 126.732 20.4145 126.626 19.8222C126.535 19.2148 126.398 18.8352 126.216 18.6833C125.867 18.3948 125.312 18.2506 124.553 18.2506L124.508 18H135.145V21.28L134.872 21.2345C134.872 20.217 134.332 19.5109 133.254 19.1161C132.191 18.7213 130.559 18.5239 128.357 18.5239V25.6989C129.815 25.6989 130.863 25.623 131.5 25.4711C132.138 25.3193 132.548 25.0915 132.73 24.7878C132.913 24.4689 133.004 23.945 133.004 23.2161L133.254 23.1706V28.7056L133.004 28.66C133.004 27.916 132.913 27.3921 132.73 27.0884C132.548 26.7847 132.138 26.5645 131.5 26.4278C130.863 26.276 129.815 26.2 128.357 26.2V29.1384C128.357 30.748 128.41 31.8186 128.517 32.3501C128.638 32.8815 128.896 33.2384 129.291 33.4206C133.573 33.4206 135.714 32.5095 135.714 30.6873L135.988 30.6417V33.9445ZM148.042 31.9173C148.346 32.4943 148.68 32.9802 149.044 33.3751C149.424 33.7547 149.803 33.9445 150.183 33.9445H153.349L153.304 33.6712C151.891 33.6712 150.737 32.9575 149.841 31.5301C149.431 30.9075 149.044 30.2545 148.68 29.5712C147.738 27.8249 146.713 26.6252 145.605 25.9723C146.713 25.8508 147.655 25.418 148.429 24.6739C149.219 23.9147 149.614 22.9808 149.614 21.8722C149.614 19.2907 147.7 18 143.874 18H138.589L138.635 18.2733C139.379 18.2733 139.925 18.4024 140.275 18.6606C140.457 18.7972 140.594 19.1389 140.685 19.6856C140.776 20.2322 140.821 21.3483 140.821 23.0339V28.7967C140.821 29.7838 140.806 30.5278 140.776 31.0289C140.73 32.2893 140.563 33.0334 140.275 33.2612C139.925 33.5345 139.379 33.6712 138.635 33.6712L138.589 33.9445H144.694L144.648 33.6712C143.889 33.6712 143.327 33.5269 142.963 33.2384C142.78 33.0865 142.636 32.7221 142.53 32.1451C142.439 31.5528 142.393 30.4367 142.393 28.7967V25.9723C143.076 26.0026 143.722 26.2228 144.329 26.6328C144.937 27.0428 145.438 27.5439 145.833 28.1362C146.227 28.7284 146.622 29.3662 147.017 30.0495C147.412 30.7176 147.753 31.3402 148.042 31.9173ZM142.393 25.5167V18.5239H143.874C146.516 18.5239 147.837 19.678 147.837 21.9861C147.837 23.1554 147.457 24.0361 146.698 24.6284C145.939 25.2206 144.982 25.5167 143.828 25.5167H142.393ZM165.521 33.9445C164.747 33.9445 163.775 33.041 162.606 31.2339C162.105 30.4747 161.581 29.7154 161.034 28.9562C160.503 28.1969 159.903 27.5439 159.235 26.9973C158.567 26.4506 157.898 26.1697 157.23 26.1545V28.7967C157.23 31.0745 157.337 32.4412 157.549 32.8967C157.64 33.079 157.777 33.2384 157.959 33.3751C158.141 33.5117 158.339 33.5952 158.551 33.6256C158.779 33.656 159.075 33.6712 159.44 33.6712L159.485 33.9445H153.358L153.404 33.6712C154.163 33.6712 154.717 33.5269 155.066 33.2384C155.446 32.9195 155.636 31.4389 155.636 28.7967V23.1478C155.636 21.523 155.583 20.4145 155.476 19.8222C155.385 19.2148 155.249 18.8352 155.066 18.6833C154.717 18.3948 154.163 18.2506 153.404 18.2506L153.358 18H159.485L159.44 18.2506C159.075 18.2506 158.779 18.2657 158.551 18.2961C158.339 18.3265 158.141 18.41 157.959 18.5467C157.777 18.6833 157.64 18.8428 157.549 19.025C157.473 19.2072 157.413 19.5033 157.367 19.9133C157.276 20.5815 157.23 21.6596 157.23 23.1478V25.7445C157.883 25.6382 158.658 25.213 159.554 24.4689C160.465 23.7097 161.262 22.8137 161.945 21.7811C162.629 20.7333 162.97 19.807 162.97 19.0022C162.97 18.7441 162.887 18.5543 162.72 18.4328C162.568 18.3113 162.279 18.2506 161.854 18.2506L161.809 18H167.458L167.412 18.2506C165.818 18.2506 164.626 18.8048 163.836 19.9133C163.456 20.46 163.092 21.0371 162.743 21.6445C162.393 22.2367 161.862 22.9276 161.148 23.7172C160.45 24.4917 159.614 25.1902 158.643 25.8128C160.116 25.9039 161.315 26.4734 162.241 27.5212C162.803 28.1286 163.403 28.941 164.041 29.9584C164.694 30.9758 165.203 31.7123 165.567 32.1678C166.182 32.8931 166.889 33.356 167.688 33.5564C167.945 33.4798 168.217 33.2827 168.505 32.9651C168.808 32.631 169.097 32.1527 169.37 31.5301C169.644 30.9075 169.97 30.0343 170.35 28.9106L172.377 23.0567C173.091 20.9915 173.447 19.7387 173.447 19.2983C173.447 18.858 173.341 18.577 173.129 18.4556C172.916 18.3189 172.506 18.2506 171.899 18.2506L171.853 18H175.611L179.643 28.9106C180.326 30.7176 180.782 31.8641 181.01 32.3501C181.253 32.836 181.48 33.1473 181.693 33.284C182.073 33.5421 182.551 33.6712 183.128 33.6712L183.174 33.9445H177.479L177.525 33.6712C178.102 33.6712 178.504 33.6256 178.732 33.5345C178.975 33.4434 179.096 33.208 179.096 32.8284C179.096 32.4488 178.694 31.158 177.889 28.9562H170.942C170.289 30.8847 169.962 32.0995 169.962 32.6006C169.962 33.0865 170.084 33.3903 170.327 33.5117C170.585 33.618 171.041 33.6712 171.694 33.6712L171.739 33.9445H168.688H166.614H165.521ZM171.124 28.4095L174.336 19.23L177.707 28.4095H171.124ZM184.738 19.0022C184.738 19.2604 184.753 19.4654 184.783 19.6172C184.829 19.7539 184.859 19.8678 184.874 19.9589C184.905 20.05 184.943 20.1791 184.988 20.3461C185.034 20.498 185.072 20.6346 185.102 20.7561C185.148 20.8624 185.208 21.0219 185.284 21.2345C185.36 21.4471 185.421 21.6217 185.467 21.7583C185.527 21.895 185.603 22.1 185.694 22.3734C185.801 22.6467 185.884 22.8669 185.945 23.0339L189.498 32.7145L192.869 23.0339C193.538 21.1054 193.872 19.8982 193.872 19.4122C193.872 18.9263 193.743 18.615 193.484 18.4783C193.226 18.3417 192.778 18.2733 192.14 18.2733L192.095 18H197.675L197.63 18.2733C197.053 18.2733 196.613 18.3113 196.309 18.3872C196.02 18.4632 195.709 18.6682 195.375 19.0022C195.056 19.3363 194.76 19.807 194.487 20.4145C194.213 21.0219 193.879 21.895 193.484 23.0339L189.658 34.0584H188.223L184.191 23.0339C183.341 20.7561 182.741 19.4122 182.392 19.0022C182.255 18.8352 182.065 18.6833 181.822 18.5467C181.594 18.41 181.367 18.3341 181.139 18.3189C180.926 18.2885 180.63 18.2733 180.25 18.2733L180.205 18H186.355L186.309 18.2733C185.732 18.2733 185.322 18.3265 185.079 18.4328C184.852 18.5391 184.738 18.7289 184.738 19.0022ZM206.826 33.5345C206.598 33.6256 206.196 33.6712 205.619 33.6712L205.573 33.9445H211.268L211.222 33.6712C210.645 33.6712 210.167 33.5421 209.787 33.284C209.575 33.1473 209.347 32.836 209.104 32.3501C208.876 31.8641 208.421 30.7176 207.737 28.9106L203.706 18H199.947L199.993 18.2506C200.6 18.2506 201.01 18.3189 201.223 18.4556C201.435 18.577 201.542 18.858 201.542 19.2983C201.542 19.7387 201.185 20.9915 200.471 23.0567L198.444 28.9106C198.064 30.0343 197.738 30.9075 197.464 31.5301C197.191 32.1527 196.903 32.631 196.599 32.9651C196.31 33.284 196.037 33.4814 195.779 33.5573C195.536 33.6332 195.194 33.6712 194.754 33.6712L194.708 33.9445H199.833L199.788 33.6712C199.135 33.6712 198.679 33.618 198.421 33.5117C198.178 33.3903 198.057 33.0865 198.057 32.6006C198.057 32.0995 198.383 30.8847 199.036 28.9562H205.983C206.788 31.158 207.191 32.4488 207.191 32.8284C207.191 33.208 207.069 33.4434 206.826 33.5345ZM199.218 28.4095L202.43 19.23L205.801 28.4095H199.218Z" fill="url(#paint0_linear_341_537)"/>
<defs>
<linearGradient id="paint0_linear_341_537" x1="105.634" y1="0" x2="105.634" y2="54.5822" gradientUnits="userSpaceOnUse">
<stop stop-color="#FF7926"/>
<stop offset="1" stop-color="#EE9D00"/>
</linearGradient>
</defs>
</svg>
