<svg width="85" height="85" viewBox="0 0 85 85" fill="none" xmlns="http://www.w3.org/2000/svg">
<path d="M79.0527 66.3989C78.6857 66.3989 78.3822 66.1021 78.3822 65.735C78.3822 65.3681 78.6727 65.0711 79.0385 65.0711H79.0527C79.2287 65.0713 79.3975 65.1413 79.5219 65.2658C79.6464 65.3903 79.7163 65.559 79.7165 65.735C79.7164 65.911 79.6464 66.0798 79.522 66.2043C79.3975 66.3288 79.2288 66.3988 79.0527 66.3989ZM76.3971 66.3989C76.0301 66.3989 75.7269 66.1021 75.7269 65.735C75.7269 65.3681 76.0171 65.0711 76.3829 65.0711H76.3971C76.5707 65.075 76.7357 65.1467 76.8571 65.2707C76.9784 65.3948 77.0464 65.5615 77.0464 65.735C77.0464 65.9086 76.9784 66.0752 76.8571 66.1993C76.7357 66.3234 76.5707 66.395 76.3971 66.3989ZM73.7419 66.3989C73.3748 66.3989 73.0714 66.1021 73.0714 65.735C73.0714 65.3681 73.3619 65.0711 73.7276 65.0711H73.7419C73.9179 65.0713 74.0866 65.1413 74.2111 65.2658C74.3355 65.3903 74.4055 65.559 74.4056 65.735C74.4055 65.911 74.3356 66.0798 74.2111 66.2043C74.0867 66.3288 73.9179 66.3988 73.7419 66.3989ZM3.37252 13.2902C3.00563 13.2902 2.70215 12.9934 2.70215 12.6263C2.70215 12.2592 2.99251 11.9624 3.35824 11.9624H3.37252C3.73825 11.9624 4.03642 12.2592 4.03642 12.6263C4.03642 12.9934 3.73825 13.2902 3.37252 13.2902ZM6.02811 13.2902C5.66121 13.2902 5.35773 12.9934 5.35773 12.6263C5.35773 12.2592 5.6481 11.9624 6.01383 11.9624H6.02811C6.39384 11.9624 6.692 12.2592 6.692 12.6263C6.692 12.9934 6.39367 13.2902 6.02811 13.2902ZM8.68353 13.2902C8.31663 13.2902 8.01315 12.9934 8.01315 12.6263C8.01315 12.2592 8.30352 11.9624 8.66925 11.9624H8.68353C9.04926 11.9624 9.34742 12.2592 9.34742 12.6263C9.34742 12.9934 9.04909 13.2902 8.68353 13.2902Z" fill="url(#paint0_linear_1_789)"/>
<path d="M84.3234 14.6179H0.67708C0.589884 14.6179 0.503534 14.6008 0.422966 14.5675C0.342399 14.5341 0.269194 14.4852 0.207537 14.4235C0.14588 14.3619 0.0969794 14.2887 0.0636309 14.2081C0.0302824 14.1276 0.01314 14.0412 0.0131837 13.954V12.6262C0.0131837 11.528 0.906514 10.6345 2.00471 10.6345H82.9956C84.0938 10.6345 84.9871 11.528 84.9871 12.6262V13.954C84.9872 14.0412 84.97 14.1275 84.9367 14.2081C84.9034 14.2886 84.8545 14.3618 84.7928 14.4235C84.7312 14.4851 84.658 14.534 84.5774 14.5674C84.4969 14.6008 84.4106 14.6179 84.3234 14.6179ZM1.34081 13.2901H83.6593V12.6262C83.6591 12.4502 83.5891 12.2815 83.4647 12.1571C83.3403 12.0326 83.1716 11.9626 82.9956 11.9623H2.00471C1.8287 11.9625 1.65996 12.0326 1.5355 12.157C1.41105 12.2815 1.34103 12.4502 1.34081 12.6262V13.2901Z" fill="url(#paint1_linear_1_789)"/>
<path d="M76.357 74.3653C76.2772 74.3652 76.1981 74.3507 76.1235 74.3225L65.6146 70.3821H0.67708C0.589884 70.3821 0.503534 70.365 0.422966 70.3316C0.342399 70.2983 0.269194 70.2494 0.207537 70.1877C0.14588 70.1261 0.0969794 70.0529 0.0636309 69.9723C0.0302824 69.8917 0.01314 69.8054 0.0131837 69.7182V13.9542C0.01314 13.867 0.0302824 13.7806 0.0636309 13.7001C0.0969794 13.6195 0.14588 13.5463 0.207537 13.4846C0.269194 13.423 0.342399 13.3741 0.422966 13.3407C0.503534 13.3074 0.589884 13.2902 0.67708 13.2903H84.3234C84.4106 13.2903 84.4969 13.3074 84.5774 13.3408C84.658 13.3741 84.7312 13.423 84.7928 13.4847C84.8545 13.5463 84.9034 13.6195 84.9367 13.7001C84.97 13.7807 84.9872 13.867 84.9871 13.9542V69.7182C84.9872 69.8054 84.9701 69.8917 84.9367 69.9723C84.9034 70.0528 84.8545 70.126 84.7929 70.1877C84.7312 70.2494 84.658 70.2983 84.5775 70.3316C84.4969 70.365 84.4106 70.3821 84.3234 70.3821H77.0207V73.7014C77.0208 73.8086 76.9949 73.9143 76.9453 74.0094C76.8956 74.1044 76.8237 74.186 76.7356 74.2472C76.6243 74.3241 76.4922 74.3653 76.357 74.3653ZM1.34081 69.0544H65.7351C65.8143 69.0544 65.8933 69.0687 65.9685 69.0973L75.6931 72.7433V69.7182C75.693 69.631 75.7101 69.5447 75.7435 69.4641C75.7768 69.3835 75.8257 69.3103 75.8873 69.2487C75.949 69.187 76.0222 69.1382 76.1027 69.1048C76.1833 69.0715 76.2696 69.0544 76.3568 69.0544H83.6592V14.6181H1.34081V69.0544Z" fill="url(#paint2_linear_1_789)"/>
<path d="M12.6251 30.5506C10.6401 30.5506 7.97949 27.7578 7.97949 24.9013C7.97949 22.0664 9.97616 19.929 12.6251 19.929C15.2754 19.929 17.2734 22.0664 17.2734 24.9013C17.2734 27.7578 14.6115 30.5506 12.6251 30.5506ZM12.6251 21.2566C10.7023 21.2566 9.30712 22.7891 9.30712 24.9013C9.30712 27.1782 11.5606 29.2228 12.6251 29.2228C13.7182 29.2228 15.9458 27.2222 15.9458 24.9013C15.9458 22.7892 14.5494 21.2566 12.6251 21.2566Z" fill="url(#paint3_linear_1_789)"/>
<path d="M18.3106 32.1481C18.2303 32.1481 18.1474 32.1331 18.0682 32.1021C14.6179 30.7471 14.6179 30.2699 14.6179 29.8868C14.6177 29.7361 14.6688 29.5898 14.7627 29.4719C14.8567 29.3541 14.988 29.2718 15.135 29.2385C15.282 29.2053 15.4359 29.223 15.5715 29.2889C15.707 29.3547 15.8161 29.4648 15.8808 29.6009C16.2075 29.8589 17.486 30.4469 18.5532 30.8664C18.717 30.9308 18.8485 31.0576 18.919 31.2188C18.9895 31.3801 18.9932 31.5628 18.9292 31.7267C18.8802 31.8509 18.795 31.9574 18.6847 32.0326C18.5744 32.1077 18.4441 32.1479 18.3106 32.1481Z" fill="url(#paint4_linear_1_789)"/>
<path d="M15.2818 30.5506C15.1946 30.5507 15.1083 30.5335 15.0277 30.5002C14.9471 30.4668 14.8739 30.4179 14.8123 30.3563C14.7506 30.2946 14.7017 30.2214 14.6684 30.1408C14.635 30.0603 14.6179 29.9739 14.6179 29.8867V28.255C14.6179 27.8881 14.9149 27.5911 15.2818 27.5911C15.6487 27.5911 15.9457 27.8881 15.9457 28.255V29.8867C15.9458 29.9739 15.9286 30.0603 15.8953 30.1408C15.8619 30.2214 15.813 30.2946 15.7514 30.3563C15.6897 30.4179 15.6165 30.4668 15.5359 30.5002C15.4554 30.5335 15.369 30.5507 15.2818 30.5506ZM6.94218 32.1482C6.8087 32.148 6.67835 32.1078 6.56804 32.0326C6.45774 31.9574 6.37257 31.8509 6.32361 31.7267C6.25958 31.5627 6.26321 31.3801 6.3337 31.2188C6.4042 31.0575 6.5358 30.9307 6.69963 30.8664C7.76678 30.447 9.04527 29.859 9.37199 29.6008C9.43668 29.4647 9.54578 29.3547 9.68133 29.2888C9.81689 29.223 9.97082 29.2052 10.1178 29.2385C10.2648 29.2718 10.3961 29.3541 10.4901 29.4719C10.584 29.5897 10.6351 29.736 10.6349 29.8867C10.6349 30.2699 10.6349 30.747 7.18457 32.102C7.10738 32.1325 7.02516 32.1481 6.94218 32.1482Z" fill="url(#paint5_linear_1_789)"/>
<path d="M9.97078 30.5506C9.88359 30.5507 9.79723 30.5335 9.71667 30.5002C9.6361 30.4668 9.5629 30.4179 9.50124 30.3563C9.43958 30.2946 9.39068 30.2214 9.35733 30.1408C9.32398 30.0603 9.30684 29.9739 9.30688 29.8867V28.255C9.30684 28.1678 9.32398 28.0814 9.35733 28.0008C9.39068 27.9203 9.43958 27.8471 9.50124 27.7854C9.5629 27.7238 9.6361 27.6749 9.71667 27.6415C9.79723 27.6082 9.88359 27.591 9.97078 27.5911C10.058 27.591 10.1443 27.6082 10.2249 27.6415C10.3055 27.6749 10.3787 27.7238 10.4403 27.7854C10.502 27.8471 10.5509 27.9203 10.5842 28.0008C10.6176 28.0814 10.6347 28.1678 10.6347 28.255V29.8867C10.6347 29.9739 10.6176 30.0603 10.5842 30.1408C10.5509 30.2214 10.502 30.2946 10.4403 30.3563C10.3787 30.4179 10.3055 30.4668 10.2249 30.5002C10.1443 30.5335 10.058 30.5507 9.97078 30.5506Z" fill="url(#paint6_linear_1_789)"/>
<path d="M12.6263 34.5338C7.86774 34.5338 3.99609 30.6621 3.99609 25.9036C3.99609 21.1451 7.86774 17.2734 12.6263 17.2734C17.3848 17.2734 21.2564 21.1451 21.2564 25.9036C21.2564 30.6621 17.3848 34.5338 12.6263 34.5338ZM12.6263 18.6011C8.60037 18.6011 5.32389 21.8769 5.32389 25.9036C5.32389 29.9303 8.60037 33.2061 12.6263 33.2061C16.6521 33.2061 19.9286 29.9303 19.9286 25.9036C19.9286 21.8769 16.6523 18.6011 12.6263 18.6011ZM71.0458 50.4663C69.0594 50.4663 66.3987 47.6734 66.3987 44.8171C66.3987 41.982 68.397 39.8446 71.0458 39.8446C73.6949 39.8446 75.6929 41.982 75.6929 44.8171C75.6929 47.6734 73.0322 50.4663 71.0458 50.4663ZM71.0458 41.1722C69.123 41.1722 67.7265 42.7049 67.7265 44.8171C67.7265 47.1378 69.9528 49.1386 71.0458 49.1386C72.1103 49.1386 74.3651 47.0938 74.3651 44.8171C74.3651 42.7049 72.9686 41.1722 71.0458 41.1722Z" fill="url(#paint7_linear_1_789)"/>
<path d="M76.7304 52.0637C76.6501 52.0637 76.5671 52.0494 76.4879 52.0184C73.0376 50.662 73.0376 50.1851 73.0376 49.8024C73.0376 49.7152 73.0547 49.6289 73.0881 49.5483C73.1215 49.4677 73.1704 49.3945 73.2321 49.3329C73.2937 49.2713 73.367 49.2224 73.4475 49.1891C73.5281 49.1557 73.6145 49.1386 73.7017 49.1387C73.966 49.1387 74.1929 49.2929 74.3005 49.5159C74.6274 49.7738 75.9055 50.3625 76.9727 50.7812C77.1365 50.8458 77.2681 50.9727 77.3386 51.1341C77.4091 51.2955 77.4128 51.4782 77.3489 51.6424C77.2998 51.7664 77.2147 51.8729 77.1044 51.9481C76.9941 52.0232 76.8639 52.0635 76.7304 52.0637Z" fill="url(#paint8_linear_1_789)"/>
<path d="M73.7016 50.4662C73.3345 50.4662 73.0375 50.1694 73.0375 49.8023V48.1712C73.0375 48.084 73.0546 47.9976 73.088 47.9171C73.1213 47.8365 73.1702 47.7633 73.2319 47.7016C73.2936 47.64 73.3668 47.5911 73.4474 47.5577C73.528 47.5244 73.6144 47.5073 73.7016 47.5073C73.7888 47.5073 73.8751 47.5245 73.9556 47.5578C74.0362 47.5912 74.1094 47.6401 74.171 47.7017C74.2326 47.7634 74.2815 47.8366 74.3149 47.9171C74.3482 47.9977 74.3653 48.084 74.3653 48.1712V49.8023C74.3654 49.8895 74.3482 49.9759 74.3149 50.0564C74.2816 50.137 74.2327 50.2102 74.1711 50.2719C74.1094 50.3335 74.0362 50.3824 73.9557 50.4158C73.8751 50.4491 73.7888 50.4663 73.7016 50.4662ZM65.3616 52.0636C65.0973 52.0636 64.847 51.9041 64.7432 51.6423C64.6792 51.4782 64.6829 51.2954 64.7534 51.134C64.8239 50.9726 64.9555 50.8457 65.1194 50.7812C66.1865 50.3625 67.4647 49.7738 67.7916 49.5158C67.8457 49.4028 67.9307 49.3075 68.0367 49.2407C68.1427 49.174 68.2655 49.1386 68.3907 49.1386C68.4779 49.1386 68.5642 49.1557 68.6448 49.189C68.7253 49.2224 68.7985 49.2713 68.8602 49.3329C68.9218 49.3945 68.9707 49.4677 69.004 49.5483C69.0374 49.6288 69.0545 49.7152 69.0545 49.8023C69.0545 50.185 69.0545 50.662 65.6042 52.0183C65.5268 52.0484 65.4446 52.0638 65.3616 52.0636Z" fill="url(#paint9_linear_1_789)"/>
<path d="M68.3906 50.4662C68.0236 50.4662 67.7266 50.1694 67.7266 49.8023V48.1712C67.7265 48.084 67.7437 47.9976 67.777 47.9171C67.8104 47.8365 67.8593 47.7633 67.921 47.7016C67.9827 47.64 68.0559 47.5911 68.1365 47.5577C68.217 47.5244 68.3034 47.5073 68.3906 47.5073C68.4778 47.5073 68.5641 47.5245 68.6447 47.5578C68.7252 47.5912 68.7984 47.6401 68.8601 47.7017C68.9217 47.7634 68.9706 47.8366 69.0039 47.9171C69.0373 47.9977 69.0544 48.084 69.0544 48.1712V49.8023C69.0544 49.8895 69.0373 49.9759 69.004 50.0564C68.9706 50.137 68.9218 50.2102 68.8601 50.2719C68.7985 50.3335 68.7253 50.3824 68.6447 50.4158C68.5642 50.4491 68.4778 50.4663 68.3906 50.4662Z" fill="url(#paint10_linear_1_789)"/>
<path d="M71.0459 54.4495C66.2876 54.4495 62.4158 50.5779 62.4158 45.8194C62.4158 41.0609 66.2876 37.1892 71.0459 37.1892C75.8046 37.1892 79.6761 41.0609 79.6761 45.8194C79.6761 50.5779 75.8046 54.4495 71.0459 54.4495ZM71.0459 38.5167C67.02 38.5167 63.7436 41.7925 63.7436 45.8192C63.7436 49.8451 67.02 53.1216 71.0459 53.1216C75.0718 53.1216 78.3483 49.8451 78.3483 45.8192C78.3485 41.7927 75.0718 38.5167 71.0459 38.5167Z" fill="url(#paint11_linear_1_789)"/>
<path d="M57.7689 34.5337H25.9035C25.8163 34.5337 25.73 34.5166 25.6494 34.4832C25.5689 34.4499 25.4956 34.401 25.434 34.3393C25.3723 34.2777 25.3234 34.2045 25.2901 34.1239C25.2567 34.0433 25.2396 33.957 25.2396 33.8698V27.5054L24.1064 26.3728C24.0447 26.3112 23.9958 26.238 23.9624 26.1575C23.929 26.077 23.9119 25.9906 23.9119 25.9034C23.9119 25.8162 23.929 25.7299 23.9624 25.6494C23.9958 25.5688 24.0447 25.4956 24.1064 25.434L25.2396 24.3008V17.9371C25.2396 17.8499 25.2567 17.7635 25.2901 17.683C25.3234 17.6024 25.3723 17.5292 25.434 17.4675C25.4956 17.4059 25.5689 17.357 25.6494 17.3236C25.73 17.2903 25.8163 17.2731 25.9035 17.2732H57.7689C57.8561 17.2731 57.9424 17.2903 58.023 17.3236C58.1036 17.357 58.1768 17.4059 58.2384 17.4676C58.3 17.5292 58.3489 17.6024 58.3823 17.683C58.4156 17.7636 58.4327 17.8499 58.4326 17.9371V33.8698C58.4327 33.957 58.4156 34.0433 58.3823 34.1239C58.3489 34.2044 58.3 34.2776 58.2384 34.3393C58.1768 34.401 58.1036 34.4499 58.023 34.4832C57.9424 34.5166 57.8561 34.5337 57.7689 34.5337ZM26.5674 33.206H57.1048V18.601H26.5674V24.5757C26.5674 24.6629 26.5503 24.7492 26.5169 24.8298C26.4835 24.9103 26.4345 24.9834 26.3729 25.045L25.5146 25.9033L26.3729 26.7612C26.4345 26.8228 26.4835 26.8959 26.5169 26.9764C26.5503 27.057 26.5674 27.1433 26.5674 27.2305V33.206Z" fill="url(#paint12_linear_1_789)"/>
<path d="M57.769 54.4497H25.9036C25.8164 54.4497 25.7301 54.4326 25.6495 54.3992C25.569 54.3659 25.4958 54.317 25.4341 54.2553C25.3724 54.1937 25.3235 54.1205 25.2902 54.0399C25.2568 53.9593 25.2397 53.873 25.2397 53.7858V37.8531C25.2397 37.7659 25.2568 37.6796 25.2902 37.599C25.3235 37.5184 25.3724 37.4452 25.4341 37.3836C25.4958 37.3219 25.569 37.273 25.6495 37.2397C25.7301 37.2063 25.8164 37.1892 25.9036 37.1892H57.769C57.8562 37.1892 57.9425 37.2063 58.0231 37.2397C58.1036 37.2731 58.1768 37.322 58.2385 37.3836C58.3001 37.4453 58.349 37.5185 58.3823 37.599C58.4157 37.6796 58.4328 37.7659 58.4328 37.8531V42.889L59.566 44.0222C59.6276 44.0839 59.6765 44.1571 59.7099 44.2376C59.7433 44.3181 59.7605 44.4045 59.7605 44.4917C59.7605 44.5788 59.7433 44.6652 59.7099 44.7457C59.6765 44.8263 59.6276 44.8994 59.566 44.9611L58.4328 46.0941V53.7856C58.4328 54.1525 58.1357 54.4497 57.769 54.4497ZM26.5675 53.1217H57.105V45.8194C57.105 45.6431 57.175 45.4744 57.2995 45.35L58.1578 44.4916L57.2995 43.6333C57.2379 43.5717 57.1889 43.4985 57.1555 43.418C57.1222 43.3374 57.105 43.2511 57.105 43.1639V38.5168H26.5675V53.1217Z" fill="url(#paint13_linear_1_789)"/>
<path d="M79.0124 63.7436H4.65999C4.57279 63.7437 4.48644 63.7265 4.40588 63.6932C4.32531 63.6598 4.2521 63.6109 4.19045 63.5493C4.12879 63.4876 4.07989 63.4144 4.04654 63.3338C4.01319 63.2533 3.99605 63.1669 3.99609 63.0797V57.7689C3.99605 57.6817 4.01319 57.5953 4.04654 57.5148C4.07989 57.4342 4.12879 57.361 4.19045 57.2993C4.2521 57.2377 4.32531 57.1888 4.40588 57.1554C4.48644 57.1221 4.57279 57.1049 4.65999 57.105H79.0124C79.0996 57.105 79.1859 57.1221 79.2665 57.1555C79.347 57.1888 79.4202 57.2377 79.4818 57.2994C79.5435 57.361 79.5924 57.4342 79.6257 57.5148C79.659 57.5954 79.6762 57.6817 79.6761 57.7689V63.0797C79.6762 63.1669 79.659 63.2532 79.6257 63.3338C79.5924 63.4144 79.5435 63.4875 79.4818 63.5492C79.4202 63.6109 79.347 63.6598 79.2665 63.6931C79.1859 63.7265 79.0996 63.7436 79.0124 63.7436ZM5.32389 62.4158H78.3484V58.4328H5.32389V62.4158Z" fill="url(#paint14_linear_1_789)"/>
<path d="M15.2817 66.3988H4.65999C4.57279 66.3989 4.48644 66.3817 4.40588 66.3484C4.32531 66.315 4.2521 66.2661 4.19045 66.2045C4.12879 66.1428 4.07989 66.0696 4.04654 65.9891C4.01319 65.9085 3.99605 65.8221 3.99609 65.7349C3.99605 65.6477 4.01319 65.5614 4.04654 65.4808C4.07989 65.4003 4.12879 65.3271 4.19045 65.2654C4.2521 65.2037 4.32531 65.1548 4.40588 65.1215C4.48644 65.0881 4.57279 65.071 4.65999 65.071H15.2817C15.3689 65.071 15.4552 65.0881 15.5358 65.1215C15.6164 65.1548 15.6896 65.2037 15.7512 65.2654C15.8129 65.3271 15.8618 65.4003 15.8951 65.4808C15.9285 65.5614 15.9456 65.6477 15.9456 65.7349C15.9456 65.8221 15.9285 65.9085 15.8951 65.9891C15.8618 66.0696 15.8129 66.1428 15.7512 66.2045C15.6896 66.2661 15.6164 66.315 15.5358 66.3484C15.4552 66.3817 15.3689 66.3989 15.2817 66.3988Z" fill="url(#paint15_linear_1_789)"/>
<path d="M53.7855 42.4999H29.8866C29.7994 42.5 29.713 42.4828 29.6324 42.4495C29.5519 42.4161 29.4787 42.3672 29.417 42.3056C29.3554 42.2439 29.3065 42.1707 29.2731 42.0901C29.2398 42.0096 29.2226 41.9232 29.2227 41.836C29.2226 41.7488 29.2398 41.6625 29.2731 41.5819C29.3065 41.5013 29.3554 41.4281 29.417 41.3665C29.4787 41.3048 29.5519 41.2559 29.6324 41.2226C29.713 41.1892 29.7994 41.1721 29.8866 41.1721H53.7853C54.1524 41.1721 54.4494 41.4691 54.4494 41.836C54.4494 41.9232 54.4323 42.0096 54.3989 42.0901C54.3656 42.1707 54.3167 42.2439 54.255 42.3056C54.1934 42.3672 54.1202 42.4161 54.0396 42.4495C53.959 42.4828 53.8727 42.5 53.7855 42.4999Z" fill="url(#paint16_linear_1_789)"/>
<path d="M53.7855 46.4831H29.8866C29.7994 46.4832 29.713 46.4661 29.6325 46.4328C29.5519 46.3994 29.4787 46.3505 29.417 46.2889C29.3554 46.2273 29.3065 46.1541 29.2731 46.0735C29.2398 45.9929 29.2226 45.9066 29.2227 45.8194C29.2226 45.7322 29.2397 45.6459 29.2731 45.5653C29.3064 45.4847 29.3553 45.4115 29.417 45.3498C29.4786 45.2882 29.5518 45.2393 29.6324 45.2059C29.713 45.1726 29.7993 45.1555 29.8866 45.1555H53.7853C54.1524 45.1555 54.4494 45.4524 54.4494 45.8194C54.4494 45.9066 54.4323 45.9929 54.3989 46.0735C54.3656 46.1541 54.3167 46.2273 54.255 46.2889C54.1934 46.3505 54.1202 46.3994 54.0396 46.4328C53.959 46.4661 53.8727 46.4832 53.7855 46.4831Z" fill="url(#paint17_linear_1_789)"/>
<path d="M41.836 50.4663H29.8866C29.7994 50.4663 29.713 50.4492 29.6324 50.4158C29.5519 50.3825 29.4787 50.3336 29.417 50.2719C29.3554 50.2103 29.3065 50.1371 29.2731 50.0565C29.2398 49.9759 29.2226 49.8896 29.2227 49.8024C29.2226 49.7152 29.2398 49.6289 29.2731 49.5483C29.3065 49.4678 29.3554 49.3946 29.417 49.3329C29.4787 49.2713 29.5519 49.2224 29.6325 49.1891C29.713 49.1557 29.7994 49.1386 29.8866 49.1387H41.836C41.9232 49.1386 42.0096 49.1557 42.0901 49.1891C42.1707 49.2224 42.2439 49.2713 42.3056 49.3329C42.3672 49.3946 42.4161 49.4678 42.4495 49.5483C42.4828 49.6289 42.5 49.7152 42.4999 49.8024C42.5 49.8896 42.4828 49.9759 42.4495 50.0565C42.4161 50.1371 42.3672 50.2103 42.3056 50.2719C42.2439 50.3336 42.1707 50.3825 42.0901 50.4158C42.0096 50.4492 41.9232 50.4663 41.836 50.4663Z" fill="url(#paint18_linear_1_789)"/>
<path d="M53.7855 22.5844H29.8866C29.5197 22.5844 29.2227 22.2874 29.2227 21.9205C29.2227 21.5536 29.5195 21.2566 29.8866 21.2566H53.7853C54.1524 21.2566 54.4494 21.5536 54.4494 21.9205C54.4494 22.2874 54.1524 22.5844 53.7855 22.5844Z" fill="url(#paint19_linear_1_789)"/>
<path d="M53.7855 26.5673H29.8866C29.5197 26.5673 29.2227 26.2705 29.2227 25.9034C29.2227 25.5363 29.5195 25.2395 29.8866 25.2395H53.7853C54.1524 25.2395 54.4494 25.5363 54.4494 25.9034C54.4494 26.2705 54.1524 26.5673 53.7855 26.5673Z" fill="url(#paint20_linear_1_789)"/>
<path d="M41.836 30.5504H29.8866C29.7994 30.5505 29.713 30.5333 29.6324 30.5C29.5519 30.4667 29.4787 30.4178 29.417 30.3561C29.3554 30.2944 29.3065 30.2212 29.2731 30.1407C29.2398 30.0601 29.2226 29.9737 29.2227 29.8866C29.2226 29.7994 29.2398 29.713 29.2731 29.6324C29.3065 29.5519 29.3554 29.4787 29.417 29.417C29.4787 29.3554 29.5519 29.3065 29.6324 29.2731C29.713 29.2398 29.7994 29.2226 29.8866 29.2227H41.836C41.9232 29.2226 42.0096 29.2398 42.0901 29.2731C42.1707 29.3065 42.2439 29.3554 42.3056 29.417C42.3672 29.4787 42.4161 29.5519 42.4495 29.6324C42.4828 29.713 42.5 29.7994 42.4999 29.8866C42.5 29.9737 42.4828 30.0601 42.4495 30.1407C42.4161 30.2212 42.3672 30.2944 42.3056 30.3561C42.2439 30.4178 42.1707 30.4667 42.0901 30.5C42.0096 30.5333 41.9232 30.5505 41.836 30.5504Z" fill="url(#paint21_linear_1_789)"/>
<defs>
<linearGradient id="paint0_linear_1_789" x1="41.2093" y1="11.9624" x2="41.2093" y2="66.3989" gradientUnits="userSpaceOnUse">
<stop stop-color="#FF7926"/>
<stop offset="1" stop-color="#EE9D00"/>
</linearGradient>
<linearGradient id="paint1_linear_1_789" x1="42.5001" y1="10.6345" x2="42.5001" y2="14.6179" gradientUnits="userSpaceOnUse">
<stop stop-color="#FF7926"/>
<stop offset="1" stop-color="#EE9D00"/>
</linearGradient>
<linearGradient id="paint2_linear_1_789" x1="42.5001" y1="13.2903" x2="42.5001" y2="74.3653" gradientUnits="userSpaceOnUse">
<stop stop-color="#FF7926"/>
<stop offset="1" stop-color="#EE9D00"/>
</linearGradient>
<linearGradient id="paint3_linear_1_789" x1="12.6264" y1="19.929" x2="12.6264" y2="30.5506" gradientUnits="userSpaceOnUse">
<stop stop-color="#FF7926"/>
<stop offset="1" stop-color="#EE9D00"/>
</linearGradient>
<linearGradient id="paint4_linear_1_789" x1="16.7963" y1="29.2222" x2="16.7963" y2="32.1481" gradientUnits="userSpaceOnUse">
<stop stop-color="#FF7926"/>
<stop offset="1" stop-color="#EE9D00"/>
</linearGradient>
<linearGradient id="paint5_linear_1_789" x1="11.1119" y1="27.5911" x2="11.1119" y2="32.1482" gradientUnits="userSpaceOnUse">
<stop stop-color="#FF7926"/>
<stop offset="1" stop-color="#EE9D00"/>
</linearGradient>
<linearGradient id="paint6_linear_1_789" x1="9.97078" y1="27.5911" x2="9.97078" y2="30.5506" gradientUnits="userSpaceOnUse">
<stop stop-color="#FF7926"/>
<stop offset="1" stop-color="#EE9D00"/>
</linearGradient>
<linearGradient id="paint7_linear_1_789" x1="39.8445" y1="17.2734" x2="39.8445" y2="50.4663" gradientUnits="userSpaceOnUse">
<stop stop-color="#FF7926"/>
<stop offset="1" stop-color="#EE9D00"/>
</linearGradient>
<linearGradient id="paint8_linear_1_789" x1="75.216" y1="49.1387" x2="75.216" y2="52.0637" gradientUnits="userSpaceOnUse">
<stop stop-color="#FF7926"/>
<stop offset="1" stop-color="#EE9D00"/>
</linearGradient>
<linearGradient id="paint9_linear_1_789" x1="69.5315" y1="47.5073" x2="69.5315" y2="52.0636" gradientUnits="userSpaceOnUse">
<stop stop-color="#FF7926"/>
<stop offset="1" stop-color="#EE9D00"/>
</linearGradient>
<linearGradient id="paint10_linear_1_789" x1="68.3905" y1="47.5073" x2="68.3905" y2="50.4662" gradientUnits="userSpaceOnUse">
<stop stop-color="#FF7926"/>
<stop offset="1" stop-color="#EE9D00"/>
</linearGradient>
<linearGradient id="paint11_linear_1_789" x1="71.0459" y1="37.1892" x2="71.0459" y2="54.4495" gradientUnits="userSpaceOnUse">
<stop stop-color="#FF7926"/>
<stop offset="1" stop-color="#EE9D00"/>
</linearGradient>
<linearGradient id="paint12_linear_1_789" x1="41.1723" y1="17.2732" x2="41.1723" y2="34.5337" gradientUnits="userSpaceOnUse">
<stop stop-color="#FF7926"/>
<stop offset="1" stop-color="#EE9D00"/>
</linearGradient>
<linearGradient id="paint13_linear_1_789" x1="42.5001" y1="37.1892" x2="42.5001" y2="54.4497" gradientUnits="userSpaceOnUse">
<stop stop-color="#FF7926"/>
<stop offset="1" stop-color="#EE9D00"/>
</linearGradient>
<linearGradient id="paint14_linear_1_789" x1="41.8361" y1="57.105" x2="41.8361" y2="63.7436" gradientUnits="userSpaceOnUse">
<stop stop-color="#FF7926"/>
<stop offset="1" stop-color="#EE9D00"/>
</linearGradient>
<linearGradient id="paint15_linear_1_789" x1="9.97083" y1="65.071" x2="9.97083" y2="66.3988" gradientUnits="userSpaceOnUse">
<stop stop-color="#FF7926"/>
<stop offset="1" stop-color="#EE9D00"/>
</linearGradient>
<linearGradient id="paint16_linear_1_789" x1="41.836" y1="41.1721" x2="41.836" y2="42.4999" gradientUnits="userSpaceOnUse">
<stop stop-color="#FF7926"/>
<stop offset="1" stop-color="#EE9D00"/>
</linearGradient>
<linearGradient id="paint17_linear_1_789" x1="41.836" y1="45.1555" x2="41.836" y2="46.4831" gradientUnits="userSpaceOnUse">
<stop stop-color="#FF7926"/>
<stop offset="1" stop-color="#EE9D00"/>
</linearGradient>
<linearGradient id="paint18_linear_1_789" x1="35.8613" y1="49.1387" x2="35.8613" y2="50.4663" gradientUnits="userSpaceOnUse">
<stop stop-color="#FF7926"/>
<stop offset="1" stop-color="#EE9D00"/>
</linearGradient>
<linearGradient id="paint19_linear_1_789" x1="41.836" y1="21.2566" x2="41.836" y2="22.5844" gradientUnits="userSpaceOnUse">
<stop stop-color="#FF7926"/>
<stop offset="1" stop-color="#EE9D00"/>
</linearGradient>
<linearGradient id="paint20_linear_1_789" x1="41.836" y1="25.2395" x2="41.836" y2="26.5673" gradientUnits="userSpaceOnUse">
<stop stop-color="#FF7926"/>
<stop offset="1" stop-color="#EE9D00"/>
</linearGradient>
<linearGradient id="paint21_linear_1_789" x1="35.8613" y1="29.2227" x2="35.8613" y2="30.5504" gradientUnits="userSpaceOnUse">
<stop stop-color="#FF7926"/>
<stop offset="1" stop-color="#EE9D00"/>
</linearGradient>
</defs>
</svg>
