<svg width="85" height="85" viewBox="0 0 85 85" fill="none" xmlns="http://www.w3.org/2000/svg">
<g clip-path="url(#clip0_1_761)">
<path d="M16.6396 75.6989C16.2727 75.6989 15.969 75.4021 15.969 75.035C15.969 74.668 16.2596 74.371 16.6265 74.371H16.6394C17.0063 74.371 17.3035 74.668 17.3035 75.035C17.3035 75.4021 17.0065 75.6989 16.6396 75.6989ZM16.6396 78.3548C16.2727 78.3548 15.969 78.0578 15.969 77.6909C15.969 77.3239 16.2596 77.0269 16.6265 77.0269H16.6394C17.0063 77.0269 17.3035 77.3239 17.3035 77.6909C17.3035 77.7781 17.2864 77.8645 17.253 77.9451C17.2197 78.0256 17.1708 78.0988 17.1091 78.1605C17.0475 78.2221 16.9743 78.271 16.8937 78.3044C16.8131 78.3377 16.7268 78.3549 16.6396 78.3548ZM16.5994 81.0108H0.663897C0.5767 81.0108 0.49035 80.9937 0.409783 80.9603C0.329215 80.927 0.256011 80.8781 0.194353 80.8164C0.132696 80.7547 0.0837958 80.6815 0.0504473 80.601C0.0170988 80.5204 -4.35587e-05 80.4341 8.31193e-08 80.3469V75.922C8.31193e-08 73.3335 1.37594 72.313 3.75179 71.4245C4.54667 71.1277 6.65922 70.3379 8.34643 69.5326C8.42497 69.4947 8.51023 69.4728 8.59729 69.468C8.68434 69.4633 8.77148 69.4758 8.85369 69.5048C8.93589 69.5339 9.01153 69.5789 9.07625 69.6373C9.14098 69.6958 9.1935 69.7664 9.2308 69.8452C9.26845 69.9239 9.29023 70.0092 9.2949 70.0963C9.29957 70.1834 9.28704 70.2705 9.25803 70.3528C9.22902 70.435 9.18409 70.5107 9.1258 70.5756C9.06752 70.6405 8.99703 70.6933 8.91836 70.7309C7.35964 71.4752 5.48814 72.1938 4.21746 72.6698C1.94919 73.5166 1.32812 74.2156 1.32812 75.9222V79.683H16.5996C16.7756 79.683 16.9445 79.753 17.069 79.8775C17.1935 80.002 17.2634 80.1709 17.2634 80.3469C17.2634 80.523 17.1934 80.6919 17.0689 80.8164C16.9444 80.9409 16.7755 81.0108 16.5994 81.0108Z" fill="url(#paint0_linear_1_761)"/>
<path d="M32.5349 81.0106H16.5994C16.2325 81.0106 15.9353 80.7136 15.9353 80.3467C15.9353 79.9797 16.2323 79.6827 16.5994 79.6827H31.8708V75.9219C31.8708 74.2153 31.2497 73.5163 28.9828 72.6695C27.7106 72.1922 25.838 71.4737 24.2779 70.7268C24.1992 70.6891 24.1287 70.6364 24.0705 70.5715C24.0123 70.5066 23.9674 70.4308 23.9385 70.3485C23.9096 70.2662 23.8972 70.1791 23.902 70.092C23.9068 70.0049 23.9288 69.9196 23.9666 69.8411C24.1235 69.5104 24.5216 69.3689 24.8512 69.5285C26.3646 70.2535 28.1995 70.9575 29.4483 71.4244C31.8241 72.3129 33.1988 73.3334 33.1988 75.9219V80.3467C33.1988 80.4339 33.1817 80.5203 33.1483 80.6008C33.115 80.6814 33.0661 80.7546 33.0044 80.8163C32.9427 80.8779 32.8695 80.9268 32.789 80.9602C32.7084 80.9935 32.6221 81.0107 32.5349 81.0106ZM16.6395 70.5684C12.8877 70.5684 6.67992 64.5965 6.67992 57.7908C6.67992 57.4238 6.97692 57.1268 7.34398 57.1268C7.43119 57.1267 7.51755 57.1439 7.59813 57.1772C7.67871 57.2106 7.75192 57.2595 7.81358 57.3212C7.87524 57.3829 7.92414 57.4561 7.95748 57.5367C7.99082 57.6173 8.00794 57.7036 8.00788 57.7908C8.00788 63.6952 13.3936 69.2404 16.6397 69.2404C19.887 69.2404 25.2713 63.6953 25.2713 57.7908C25.2713 57.4238 25.5683 57.1268 25.9354 57.1268C26.3025 57.1268 26.5995 57.4238 26.5995 57.7908C26.5991 64.5966 20.3925 70.5684 16.6395 70.5684ZM7.30364 57.1073C7.25051 57.1073 7.19606 57.1009 7.14144 57.0866C7.00836 57.0532 6.8889 56.9795 6.79949 56.8754C6.71009 56.7713 6.65515 56.6421 6.64223 56.5055C6.28945 52.7267 7.11554 49.705 9.10109 47.5251C12.0255 44.3127 16.7679 43.6392 20.2304 43.6392C22.0382 43.6392 23.2883 43.8273 23.3403 43.8357C23.4836 43.8579 23.6157 43.9263 23.7166 44.0304C23.8175 44.1346 23.8816 44.2689 23.8992 44.4128C23.9164 44.5571 23.8858 44.703 23.8123 44.8282C23.7388 44.9535 23.6263 45.0513 23.492 45.1067C22.0369 45.7046 22.1692 47.1115 22.3508 47.8405C23.029 47.8664 24.392 48.0842 25.4294 49.298C26.6938 50.7738 27.0711 53.2118 26.5512 56.5459C26.5306 56.678 26.4705 56.8009 26.3789 56.8983C26.2873 56.9958 26.1683 57.0632 26.0377 57.0919C25.9071 57.1201 25.771 57.1085 25.6471 57.0586C25.5231 57.0086 25.4171 56.9226 25.3426 56.8117L22.981 53.2701C21.9255 53.6527 19.3914 54.4514 16.6395 54.4514C13.8787 54.4514 11.2902 53.6474 10.2202 53.2661L7.85614 56.8115C7.7955 56.9025 7.71335 56.9771 7.61697 57.0287C7.52059 57.0803 7.41297 57.1073 7.30364 57.1073ZM23.239 51.7955C23.4556 51.7955 23.6656 51.9019 23.7915 52.0912L25.4307 54.5487C25.5318 52.5582 25.1908 51.0589 24.4205 50.1616C23.6788 49.2938 22.7036 49.1642 22.1888 49.1642C22.0591 49.1642 21.9761 49.1733 21.9592 49.1758C21.6532 49.2095 21.3678 49.0461 21.2551 48.7661C20.888 47.8623 20.6377 46.2217 21.5118 45C21.1331 44.9806 20.6999 44.9663 20.2304 44.9663C17.035 44.9663 12.6815 45.5653 10.0827 48.4184C8.71975 49.915 7.98829 51.9056 7.90013 54.3513L9.40706 52.091C9.49174 51.9628 9.61846 51.868 9.76543 51.823C9.91241 51.7781 10.0704 51.7857 10.2124 51.8446C10.2436 51.8576 13.3702 53.1233 16.6395 53.1233C19.9062 53.1233 22.9513 51.8603 22.9823 51.8471C23.0636 51.8131 23.1508 51.7955 23.239 51.7955Z" fill="url(#paint1_linear_1_761)"/>
<path d="M25.9352 58.4549C25.5681 58.4549 25.2711 58.1579 25.2711 57.791V56.4434C25.2711 56.0765 25.5681 55.7795 25.9352 55.7795C26.3022 55.7795 26.5992 56.0765 26.5992 56.4434V57.791C26.5993 57.8782 26.5821 57.9645 26.5487 58.0451C26.5154 58.1257 26.4664 58.1989 26.4048 58.2605C26.3431 58.3222 26.2699 58.3711 26.1893 58.4044C26.1087 58.4378 26.0224 58.4549 25.9352 58.4549ZM7.34375 58.4549C6.97669 58.4549 6.67969 58.1579 6.67969 57.791V56.4434C6.67964 56.3562 6.69679 56.2699 6.73015 56.1893C6.76351 56.1087 6.81242 56.0355 6.8741 55.9738C6.93577 55.9122 7.009 55.8633 7.08959 55.8299C7.17017 55.7966 7.25654 55.7795 7.34375 55.7795C7.43095 55.7795 7.5173 55.7966 7.59786 55.83C7.67843 55.8633 7.75164 55.9122 7.81329 55.9739C7.87495 56.0356 7.92385 56.1088 7.9572 56.1893C7.99055 56.2699 8.00769 56.3562 8.00765 56.4434V57.791C8.00769 57.8782 7.99055 57.9645 7.9572 58.0451C7.92385 58.1257 7.87495 58.1989 7.81329 58.2605C7.75164 58.3222 7.67843 58.3711 7.59786 58.4044C7.5173 58.4378 7.43095 58.4549 7.34375 58.4549ZM13.9641 73.043C13.7881 73.0425 13.6195 72.9726 13.4946 72.8486L9.51075 68.8647C9.39072 68.7393 9.32458 68.5719 9.3265 68.3983C9.32841 68.2247 9.39823 68.0587 9.521 67.936C9.64376 67.8132 9.80972 67.7435 9.98331 67.7416C10.1569 67.7397 10.3243 67.8059 10.4497 67.9259L14.0964 71.5724L16.3451 70.4573C16.4234 70.4161 16.509 70.3909 16.5972 70.3833C16.6853 70.3757 16.774 70.3858 16.8581 70.413C16.9423 70.4402 17.0202 70.4839 17.0872 70.5416C17.1542 70.5993 17.2089 70.6699 17.2483 70.7491C17.2876 70.8283 17.3107 70.9146 17.3162 71.0028C17.3217 71.0911 17.3095 71.1795 17.2803 71.263C17.2511 71.3465 17.2055 71.4233 17.1462 71.4889C17.0869 71.5545 17.0151 71.6076 16.935 71.645L14.2596 72.9729C14.1679 73.019 14.0667 73.043 13.9641 73.043Z" fill="url(#paint2_linear_1_761)"/>
<path d="M19.2747 73.0429C19.1749 73.0429 19.0738 73.0195 18.9804 72.9729L16.305 71.6449C16.1518 71.5642 16.0363 71.4268 15.983 71.262C15.9298 71.0973 15.9431 70.9182 16.0202 70.7631C16.0972 70.608 16.2318 70.4892 16.3952 70.4321C16.5587 70.3749 16.738 70.384 16.8949 70.4572L19.1424 71.5724L22.7891 67.9258C22.9145 67.8058 23.0819 67.7396 23.2555 67.7415C23.4291 67.7434 23.5951 67.8132 23.7178 67.9359C23.8406 68.0587 23.9104 68.2246 23.9123 68.3982C23.9142 68.5718 23.8481 68.7392 23.7281 68.8647L19.7442 72.8485C19.6196 72.9729 19.4508 73.0428 19.2747 73.0429ZM68.3894 81.0107H52.4541C52.087 81.0107 51.79 80.7137 51.79 80.3468V75.922C51.79 73.3335 53.166 72.3143 55.5418 71.4244C56.901 70.9161 58.6516 70.2406 60.1353 69.5325C60.4672 69.373 60.8628 69.5131 61.021 69.8451C61.0586 69.9238 61.0804 70.0091 61.0851 70.0962C61.0897 70.1833 61.0772 70.2705 61.0482 70.3527C61.0191 70.435 60.9742 70.5107 60.9159 70.5756C60.8576 70.6405 60.7871 70.6932 60.7084 70.7308C59.1781 71.4608 57.3924 72.1509 56.0075 72.6697C53.7394 73.5177 53.1182 74.2155 53.1182 75.9221V79.6829H68.3896C68.4768 79.6828 68.5632 79.7 68.6438 79.7334C68.7243 79.7667 68.7975 79.8156 68.8592 79.8773C68.9209 79.939 68.9698 80.0122 69.0031 80.0928C69.0364 80.1734 69.0536 80.2597 69.0535 80.347C69.0535 80.4341 69.0363 80.5205 69.0029 80.601C68.9696 80.6816 68.9206 80.7548 68.859 80.8164C68.7973 80.878 68.7241 80.9269 68.6435 80.9603C68.563 80.9936 68.4766 81.0107 68.3894 81.0107Z" fill="url(#paint3_linear_1_761)"/>
<path d="M84.325 81.0105H68.3897C68.3025 81.0106 68.2162 80.9934 68.1356 80.9601C68.055 80.9268 67.9818 80.8778 67.9202 80.8162C67.8585 80.7545 67.8096 80.6813 67.7763 80.6008C67.7429 80.5202 67.7258 80.4338 67.7258 80.3466C67.7258 79.9796 68.0226 79.6826 68.3897 79.6826H83.6611V75.9218C83.6611 74.2152 83.0399 73.5149 80.7731 72.6694C79.3867 72.1506 77.5999 71.4607 76.0683 70.7267C75.9094 70.6507 75.7872 70.5147 75.7286 70.3486C75.67 70.1825 75.6797 69.9999 75.7557 69.841C75.9139 69.5077 76.3146 69.3689 76.6413 69.5284C78.1262 70.2404 79.8783 70.916 81.2386 71.4243C83.6132 72.3115 84.9891 73.3333 84.9891 75.9218V80.3466C84.9892 80.4339 84.972 80.5202 84.9386 80.6008C84.9053 80.6814 84.8564 80.7546 84.7947 80.8162C84.733 80.8779 84.6598 80.9268 84.5792 80.9601C84.4986 80.9935 84.4123 81.0106 84.325 81.0105ZM68.431 70.5683C64.6793 70.5683 58.4714 64.5964 58.4714 57.7908C58.4714 57.4237 58.7684 57.1267 59.1353 57.1267C59.5024 57.1267 59.7994 57.4237 59.7994 57.7908C59.7994 63.6951 65.1839 69.2404 68.431 69.2404C71.6781 69.2404 77.0627 63.6953 77.0627 57.7908C77.0627 57.4237 77.3597 57.1267 77.7268 57.1267C77.814 57.1267 77.9003 57.1438 77.9809 57.1772C78.0615 57.2105 78.1347 57.2594 78.1964 57.3211C78.258 57.3828 78.3069 57.456 78.3403 57.5366C78.3736 57.6172 78.3907 57.7036 78.3906 57.7908C78.3906 64.5966 72.1828 70.5683 68.431 70.5683Z" fill="url(#paint4_linear_1_761)"/>
<path d="M77.7268 58.4549C77.3597 58.4549 77.0627 58.1579 77.0627 57.791V56.4434C77.0627 56.3562 77.0798 56.2699 77.1132 56.1893C77.1465 56.1087 77.1954 56.0355 77.2571 55.9738C77.3188 55.9122 77.392 55.8633 77.4726 55.8299C77.5532 55.7966 77.6395 55.7795 77.7268 55.7795C77.814 55.7795 77.9003 55.7966 77.9809 55.83C78.0614 55.8633 78.1346 55.9122 78.1963 55.9739C78.258 56.0356 78.3069 56.1088 78.3402 56.1893C78.3736 56.2699 78.3907 56.3562 78.3907 56.4434V57.791C78.3907 57.8782 78.3736 57.9645 78.3402 58.0451C78.3069 58.1257 78.258 58.1989 78.1963 58.2605C78.1346 58.3222 78.0614 58.3711 77.9809 58.4044C77.9003 58.4378 77.814 58.4549 77.7268 58.4549ZM59.1353 58.4549C59.0481 58.4549 58.9618 58.4378 58.8812 58.4044C58.8006 58.3711 58.7274 58.3222 58.6658 58.2605C58.6041 58.1989 58.5552 58.1257 58.5219 58.0451C58.4885 57.9645 58.4714 57.8782 58.4714 57.791V56.4434C58.4714 56.3562 58.4885 56.2699 58.5219 56.1893C58.5552 56.1088 58.6041 56.0356 58.6658 55.9739C58.7274 55.9122 58.8006 55.8633 58.8812 55.83C58.9618 55.7966 59.0481 55.7795 59.1353 55.7795C59.5024 55.7795 59.7994 56.0765 59.7994 56.4434V57.791C59.7994 57.8782 59.7823 57.9646 59.7489 58.0451C59.7156 58.1257 59.6667 58.1989 59.605 58.2606C59.5433 58.3222 59.4701 58.3711 59.3895 58.4045C59.3089 58.4378 59.2225 58.4549 59.1353 58.4549ZM65.7544 73.043C65.6672 73.043 65.5809 73.0259 65.5004 72.9925C65.4198 72.9591 65.3467 72.9102 65.285 72.8486L61.3012 68.8647C61.1767 68.7402 61.1067 68.5714 61.1067 68.3953C61.1067 68.2193 61.1767 68.0504 61.3012 67.9259C61.4257 67.8014 61.5945 67.7315 61.7706 67.7315C61.9466 67.7315 62.1155 67.8014 62.24 67.9259L65.8867 71.5724L68.1354 70.4573C68.2134 70.4183 68.2984 70.395 68.3855 70.3888C68.4725 70.3827 68.5599 70.3938 68.6427 70.4215C68.7254 70.4492 68.8019 70.4929 68.8677 70.5503C68.9335 70.6076 68.9874 70.6773 69.0262 70.7555C69.1884 71.0849 69.0548 71.483 68.7267 71.645L66.05 72.9729C65.9582 73.0187 65.857 73.0426 65.7544 73.043Z" fill="url(#paint5_linear_1_761)"/>
<path d="M71.0661 73.0428C70.9635 73.0425 70.8623 73.0185 70.7705 72.9728L68.0938 71.6448C67.9378 71.5655 67.8195 71.4278 67.7646 71.2617C67.7096 71.0955 67.7226 70.9144 67.8006 70.7578C67.8786 70.6012 68.0153 70.4817 68.181 70.4254C68.3466 70.3691 68.5278 70.3805 68.6851 70.4572L70.9338 71.5723L74.5805 67.9258C74.6422 67.8641 74.7153 67.8152 74.7959 67.7818C74.8764 67.7485 74.9627 67.7313 75.0499 67.7313C75.1371 67.7313 75.2234 67.7485 75.304 67.7818C75.3845 67.8152 75.4577 67.8641 75.5193 67.9258C75.581 67.9874 75.6299 68.0606 75.6632 68.1411C75.6966 68.2217 75.7138 68.308 75.7138 68.3952C75.7138 68.4823 75.6966 68.5687 75.6632 68.6492C75.6299 68.7297 75.581 68.8029 75.5193 68.8646L71.5355 72.8484C71.4109 72.9729 71.2421 73.0428 71.0661 73.0428ZM56.4378 58.4353C56.3219 58.4351 56.208 58.4047 56.1073 58.3471C56.0061 58.2888 55.922 58.205 55.8635 58.1039C55.805 58.0028 55.7741 57.8882 55.7739 57.7714C55.7739 51.0874 59.1158 48.0827 60.7381 47.0181L59.9705 46.3075C59.8871 46.2298 59.825 46.132 59.7901 46.0235C59.7551 45.915 59.7485 45.7994 59.7708 45.6876C59.7936 45.5756 59.845 45.4713 59.92 45.385C59.995 45.2987 60.091 45.2332 60.1987 45.1949C60.3467 45.1418 63.8662 43.9006 67.8034 43.9006C71.3412 43.9006 74.0592 44.8952 75.8799 46.8574C77.8616 48.9918 78.7057 52.2341 78.3892 56.4928C78.379 56.6294 78.3268 56.7596 78.2398 56.8655C78.1527 56.9713 78.0351 57.0477 77.903 57.0841C77.7709 57.1195 77.6311 57.1137 77.5024 57.0673C77.3737 57.021 77.2623 56.9363 77.1831 56.8248L74.5714 53.1067C66.4597 52.7748 56.8645 58.2914 56.771 58.346C56.6698 58.4047 56.5548 58.4355 56.4378 58.4353ZM61.7198 46.1168L62.3073 46.66C62.3884 46.7353 62.4494 46.8297 62.485 46.9345C62.5206 47.0393 62.5295 47.1513 62.511 47.2605C62.492 47.3694 62.4461 47.4719 62.3775 47.5586C62.3089 47.6454 62.2197 47.7136 62.1181 47.7572C61.9261 47.8428 57.5818 49.8282 57.1382 56.6325C59.9408 55.1595 67.915 51.3805 74.9672 51.7967C75.067 51.8024 75.1643 51.8308 75.2516 51.8795C75.339 51.9282 75.4142 51.9961 75.4715 52.0781L77.1224 54.4278C77.0653 51.5229 76.3223 49.2847 74.9061 47.7597C73.3472 46.0803 70.9572 45.2283 67.8034 45.2283C65.3537 45.2286 63.0245 45.7575 61.7198 46.1168ZM68.3895 74.3708C68.3023 74.3709 68.2159 74.3538 68.1354 74.3204C68.0548 74.287 67.9817 74.238 67.9201 74.1762L66.592 72.8484C66.5286 72.7872 66.478 72.7139 66.4432 72.6329C66.4084 72.5519 66.3901 72.4647 66.3893 72.3766C66.3885 72.2884 66.4053 72.2009 66.4387 72.1193C66.4721 72.0377 66.5214 71.9636 66.5838 71.9012C66.6461 71.8389 66.7203 71.7896 66.8019 71.7562C66.8835 71.7228 66.9709 71.706 67.0591 71.7068C67.1473 71.7075 67.2344 71.7258 67.3154 71.7606C67.3965 71.7954 67.4697 71.846 67.531 71.9095L68.8589 73.2374C68.9519 73.3302 69.0152 73.4485 69.0409 73.5774C69.0666 73.7062 69.0534 73.8397 69.0031 73.9611C68.9529 74.0824 68.8677 74.1862 68.7585 74.2591C68.6492 74.332 68.5208 74.3709 68.3895 74.3708Z" fill="url(#paint6_linear_1_761)"/>
<path d="M68.3894 74.3709C68.2581 74.3709 68.1297 74.332 68.0204 74.2591C67.9112 74.1861 67.8261 74.0824 67.7758 73.9611C67.7256 73.8397 67.7125 73.7062 67.7381 73.5774C67.7638 73.4486 67.8271 73.3303 67.9201 73.2375L69.2479 71.9095C69.3091 71.8461 69.3824 71.7955 69.4634 71.7607C69.5444 71.7259 69.6316 71.7076 69.7197 71.7068C69.8079 71.706 69.8954 71.7228 69.977 71.7562C70.0586 71.7896 70.1327 71.8389 70.1951 71.9013C70.2574 71.9636 70.3067 72.0378 70.3401 72.1194C70.3735 72.201 70.3903 72.2884 70.3896 72.3766C70.3888 72.4648 70.3705 72.5519 70.3357 72.6329C70.3009 72.714 70.2503 72.7872 70.1869 72.8485L68.8589 74.1763C68.7973 74.2381 68.7241 74.287 68.6436 74.3204C68.563 74.3538 68.4766 74.371 68.3894 74.3709Z" fill="url(#paint7_linear_1_761)"/>
<path d="M67.0628 79.6827C66.9694 79.6828 66.877 79.6633 66.7916 79.6253C66.7063 79.5873 66.6299 79.5317 66.5675 79.4622C66.505 79.3927 66.458 79.3108 66.4294 79.2219C66.4008 79.1329 66.3912 79.0389 66.4014 78.9461L67.0655 72.9703C67.1057 72.6048 67.4234 72.3375 67.7996 72.383C67.9744 72.4026 68.1343 72.4907 68.2441 72.6281C68.354 72.7654 68.4049 72.9408 68.3856 73.1156L67.7217 79.0913C67.7037 79.2536 67.6266 79.4036 67.5051 79.5127C67.3835 79.6217 67.2261 79.6823 67.0628 79.6827Z" fill="url(#paint8_linear_1_761)"/>
<path d="M69.7164 79.6827C69.5531 79.6823 69.3956 79.6217 69.2741 79.5127C69.1526 79.4036 69.0755 79.2536 69.0574 79.0913L68.3935 73.1156C68.3743 72.9408 68.4252 72.7654 68.535 72.6281C68.6449 72.4907 68.8048 72.4026 68.9796 72.383C69.3558 72.3388 69.6735 72.6048 69.7137 72.9703L70.3778 78.9461C70.388 79.039 70.3785 79.1329 70.3499 79.2219C70.3213 79.3108 70.2742 79.3928 70.2118 79.4623C70.1493 79.5318 70.073 79.5874 69.9876 79.6254C69.9022 79.6633 69.8098 79.6829 69.7164 79.6827ZM64.4057 42.5C64.3356 42.5 64.2642 42.489 64.1955 42.4656L56.3303 39.8441H33.8629C32.0331 39.8441 30.543 38.3546 30.543 36.5243V12.621C30.543 10.7905 32.0331 9.30103 33.8629 9.30103H71.0456C72.8768 9.30103 74.3655 10.7905 74.3655 12.621V36.5241C74.3655 38.3544 72.8768 39.8439 71.0456 39.8439H65.0699V41.8359C65.07 41.9232 65.0528 42.0096 65.0194 42.0902C64.9861 42.1708 64.9371 42.244 64.8754 42.3057C64.8138 42.3673 64.7405 42.4162 64.6599 42.4496C64.5793 42.4829 64.4929 42.5001 64.4057 42.5ZM33.8629 10.629C32.7644 10.629 31.8709 11.5226 31.8709 12.621V36.5241C31.8709 37.6225 32.7644 38.516 33.8629 38.516H56.4379C56.5093 38.516 56.5805 38.5276 56.6481 38.5503L63.7418 40.9144V39.18C63.7418 38.813 64.0386 38.516 64.4057 38.516H71.0455C72.1438 38.516 73.0373 37.6225 73.0373 36.5241V12.621C73.0373 11.5226 72.1438 10.629 71.0455 10.629H33.8629Z" fill="url(#paint9_linear_1_761)"/>
<path d="M64.4056 18.5968H39.1746C38.8077 18.5968 38.5105 18.2998 38.5105 17.9329C38.5105 17.5659 38.8075 17.2688 39.1746 17.2688H64.4056C64.7727 17.2688 65.0697 17.5659 65.0697 17.9329C65.0697 18.0201 65.0525 18.1065 65.0192 18.187C64.9858 18.2676 64.9369 18.3408 64.8752 18.4025C64.8135 18.4641 64.7403 18.513 64.6598 18.5464C64.5792 18.5797 64.4928 18.5969 64.4056 18.5968ZM64.4056 25.2366H39.1746C38.8077 25.2366 38.5105 24.9396 38.5105 24.5725C38.5105 24.4853 38.5276 24.399 38.561 24.3184C38.5943 24.2378 38.6432 24.1646 38.7049 24.1029C38.7666 24.0413 38.8398 23.9924 38.9204 23.959C39.001 23.9257 39.0874 23.9086 39.1746 23.9086H64.4056C64.7727 23.9086 65.0697 24.2056 65.0697 24.5725C65.0697 24.9396 64.7727 25.2366 64.4056 25.2366ZM52.4542 31.8762H39.1746C38.8077 31.8762 38.5105 31.5794 38.5105 31.2123C38.5105 30.8453 38.8075 30.5483 39.1746 30.5483H52.4542C52.8212 30.5483 53.1181 30.8453 53.1181 31.2123C53.1181 31.5794 52.8212 31.8762 52.4542 31.8762ZM59.0938 7.97297H45.8144C45.7272 7.97301 45.6408 7.95587 45.5602 7.92252C45.4797 7.88917 45.4065 7.84027 45.3448 7.77862C45.2832 7.71696 45.2343 7.64375 45.2009 7.56319C45.1676 7.48262 45.1504 7.39627 45.1505 7.30907V4.65315C45.1504 4.56596 45.1676 4.47961 45.2009 4.39904C45.2343 4.31847 45.2832 4.24527 45.3448 4.18361C45.4065 4.12195 45.4797 4.07305 45.5602 4.0397C45.6408 4.00636 45.7272 3.98921 45.8144 3.98926H59.0938C59.4608 3.98926 59.7578 4.28609 59.7578 4.65315V7.30907C59.7579 7.39628 59.7407 7.48265 59.7074 7.56322C59.674 7.6438 59.6251 7.71701 59.5634 7.77867C59.5018 7.84033 59.4285 7.88923 59.3479 7.92257C59.2674 7.95591 59.181 7.97303 59.0938 7.97297ZM46.4783 6.64518H58.4299V5.31722H46.4783V6.64518Z" fill="url(#paint10_linear_1_761)"/>
<path d="M45.8144 9.30093C45.7272 9.30097 45.6409 9.28383 45.5603 9.25048C45.4798 9.21713 45.4066 9.16823 45.3449 9.10657C45.2832 9.04492 45.2343 8.97171 45.201 8.89115C45.1676 8.81058 45.1505 8.72423 45.1505 8.63703V7.30907C45.1505 7.22188 45.1676 7.13553 45.201 7.05496C45.2343 6.97439 45.2832 6.90119 45.3449 6.83953C45.4066 6.77787 45.4798 6.72897 45.5603 6.69562C45.6409 6.66227 45.7272 6.64513 45.8144 6.64518C45.9016 6.64511 45.988 6.66224 46.0686 6.69558C46.1492 6.72892 46.2224 6.77782 46.284 6.83948C46.3457 6.90114 46.3946 6.97436 46.4279 7.05493C46.4613 7.13551 46.4784 7.22187 46.4783 7.30907V8.63703C46.4784 8.72423 46.4613 8.81059 46.4279 8.89117C46.3946 8.97175 46.3457 9.04496 46.284 9.10662C46.2224 9.16828 46.1492 9.21718 46.0686 9.25052C45.988 9.28387 45.9016 9.30099 45.8144 9.30093ZM59.0939 9.30093C59.0067 9.30097 58.9203 9.28383 58.8398 9.25048C58.7592 9.21713 58.686 9.16823 58.6243 9.10657C58.5627 9.04492 58.5138 8.97171 58.4804 8.89115C58.4471 8.81058 58.4299 8.72423 58.43 8.63703V7.30907C58.4299 7.22188 58.4471 7.13553 58.4804 7.05496C58.5138 6.97439 58.5627 6.90119 58.6243 6.83953C58.686 6.77787 58.7592 6.72897 58.8398 6.69562C58.9203 6.66227 59.0067 6.64513 59.0939 6.64518C59.4609 6.64518 59.7579 6.94201 59.7579 7.30907V8.63703C59.758 8.72424 59.7408 8.81061 59.7075 8.89118C59.6741 8.97176 59.6252 9.04497 59.5635 9.10663C59.5018 9.16829 59.4286 9.21719 59.348 9.25053C59.2674 9.28387 59.1811 9.30099 59.0939 9.30093ZM40.5026 9.96499H36.5187C36.1518 9.96499 35.8547 9.66799 35.8547 9.30093C35.8546 9.21372 35.8718 9.12735 35.9051 9.04678C35.9385 8.9662 35.9874 8.89298 36.0491 8.83133C36.1108 8.76967 36.184 8.72077 36.2646 8.68743C36.3452 8.65409 36.4315 8.63697 36.5187 8.63703H40.5026C40.8697 8.63703 41.1667 8.93403 41.1667 9.30093C41.1667 9.66799 40.8697 9.96499 40.5026 9.96499ZM68.3896 9.96499H64.4057C64.3185 9.96503 64.2321 9.94789 64.1516 9.91453C64.071 9.88117 63.9978 9.83225 63.9361 9.77058C63.8744 9.7089 63.8255 9.63568 63.7922 9.55509C63.7589 9.47451 63.7417 9.38814 63.7418 9.30093C63.7418 9.21373 63.7589 9.12738 63.7923 9.04681C63.8256 8.96625 63.8745 8.89304 63.9362 8.83138C63.9978 8.76973 64.071 8.72083 64.1516 8.68748C64.2322 8.65413 64.3185 8.63699 64.4057 8.63703H68.3896C68.4768 8.63699 68.5631 8.65413 68.6437 8.68748C68.7243 8.72083 68.7975 8.76973 68.8591 8.83138C68.9208 8.89304 68.9697 8.96625 69.003 9.04681C69.0364 9.12738 69.0535 9.21373 69.0535 9.30093C69.0535 9.66799 68.7566 9.96499 68.3896 9.96499ZM48.4704 5.98111C48.3832 5.98116 48.2968 5.96401 48.2162 5.93067C48.1357 5.89732 48.0625 5.84842 48.0008 5.78676C47.9392 5.7251 47.8903 5.6519 47.8569 5.57133C47.8236 5.49076 47.8064 5.40441 47.8065 5.31722V4.65315C47.8065 4.28609 48.1033 3.98926 48.4704 3.98926C48.8374 3.98926 49.1343 4.28609 49.1343 4.65315V5.31722C49.1343 5.40441 49.1172 5.49076 49.0838 5.57133C49.0505 5.6519 49.0016 5.7251 48.9399 5.78676C48.8782 5.84842 48.805 5.89732 48.7245 5.93067C48.6439 5.96401 48.5576 5.98116 48.4704 5.98111ZM51.1263 5.98111C50.7592 5.98111 50.4622 5.68411 50.4622 5.31722V4.65315C50.4622 4.56594 50.4793 4.47958 50.5127 4.399C50.546 4.31842 50.595 4.24521 50.6566 4.18355C50.7183 4.12189 50.7915 4.073 50.8721 4.03966C50.9527 4.00632 51.0391 3.98919 51.1263 3.98926C51.2135 3.98921 51.2998 4.00636 51.3804 4.03971C51.461 4.07305 51.5342 4.12195 51.5958 4.18361C51.6575 4.24527 51.7064 4.31847 51.7397 4.39904C51.7731 4.47961 51.7902 4.56596 51.7902 4.65315V5.31722C51.7902 5.40441 51.7731 5.49076 51.7397 5.57133C51.7064 5.6519 51.6575 5.7251 51.5958 5.78676C51.5342 5.84842 51.461 5.89732 51.3804 5.93067C51.2998 5.96401 51.2135 5.98116 51.1263 5.98111ZM53.7822 5.98111C53.4151 5.98111 53.1181 5.68411 53.1181 5.31722V4.65315C53.1181 4.56594 53.1352 4.47958 53.1686 4.399C53.202 4.31842 53.2509 4.24521 53.3125 4.18355C53.3742 4.12189 53.4474 4.073 53.528 4.03966C53.6086 4.00632 53.695 3.98919 53.7822 3.98926C53.8694 3.98921 53.9557 4.00636 54.0363 4.03971C54.1169 4.07305 54.1901 4.12195 54.2517 4.18361C54.3134 4.24527 54.3623 4.31847 54.3956 4.39904C54.429 4.47961 54.4461 4.56596 54.4461 4.65315V5.31722C54.4461 5.40441 54.429 5.49076 54.3956 5.57133C54.3623 5.6519 54.3134 5.7251 54.2517 5.78676C54.1901 5.84842 54.1169 5.89732 54.0363 5.93067C53.9557 5.96401 53.8694 5.98116 53.7822 5.98111ZM56.4379 5.98111C56.3507 5.98116 56.2644 5.96401 56.1838 5.93067C56.1033 5.89732 56.0301 5.84842 55.9684 5.78676C55.9067 5.7251 55.8578 5.6519 55.8245 5.57133C55.7911 5.49076 55.774 5.40441 55.7741 5.31722V4.65315C55.774 4.56596 55.7911 4.47961 55.8245 4.39904C55.8578 4.31847 55.9067 4.24527 55.9684 4.18361C56.0301 4.12195 56.1033 4.07305 56.1838 4.03971C56.2644 4.00636 56.3507 3.98921 56.4379 3.98926C56.805 3.98926 57.102 4.28609 57.102 4.65315V5.31722C57.1021 5.40443 57.0849 5.49079 57.0515 5.57137C57.0182 5.65195 56.9693 5.72516 56.9076 5.78682C56.8459 5.84848 56.7727 5.89738 56.6921 5.93071C56.6115 5.96405 56.5252 5.98118 56.4379 5.98111ZM13.9436 39.844C13.8345 39.8442 13.7272 39.8172 13.6312 39.7655C13.525 39.7089 13.4362 39.6246 13.3743 39.5215C13.3124 39.4184 13.2797 39.3004 13.2797 39.1801V37.1881H12.6156C10.7858 37.1881 9.29565 35.6986 9.29565 33.8682V20.5887C9.29565 18.7583 10.7858 17.2688 12.6156 17.2688H28.551C28.6382 17.2688 28.7245 17.286 28.8051 17.3193C28.8857 17.3527 28.9589 17.4016 29.0206 17.4633C29.0822 17.5249 29.1311 17.5982 29.1645 17.6787C29.1978 17.7593 29.2149 17.8457 29.2149 17.9329C29.2149 18.0201 29.1978 18.1065 29.1644 18.187C29.1311 18.2676 29.0822 18.3408 29.0205 18.4025C28.9589 18.4641 28.8857 18.513 28.8051 18.5464C28.7245 18.5797 28.6382 18.5968 28.551 18.5968H12.6156C11.5171 18.5968 10.6236 19.4903 10.6236 20.5887V33.8682C10.6236 34.9666 11.5171 35.8601 12.6156 35.8601H13.9436C14.3105 35.8601 14.6077 36.1571 14.6077 36.5242V37.9389L17.5592 35.9715C17.6683 35.8988 17.7964 35.8599 17.9275 35.8599H28.5511C28.6384 35.8599 28.7247 35.877 28.8053 35.9104C28.8859 35.9438 28.9591 35.9927 29.0207 36.0544C29.0824 36.116 29.1313 36.1893 29.1646 36.2698C29.198 36.3504 29.2151 36.4368 29.215 36.524C29.2151 36.6112 29.1979 36.6975 29.1646 36.7781C29.1312 36.8587 29.0823 36.9319 29.0207 36.9935C28.959 37.0552 28.8858 37.1041 28.8053 37.1375C28.7247 37.1708 28.6383 37.1879 28.5511 37.1879H18.1285L14.3118 39.7324C14.2029 39.8053 14.0747 39.8441 13.9436 39.844Z" fill="url(#paint11_linear_1_761)"/>
<path d="M28.551 25.2367H16.5994C16.2325 25.2367 15.9353 24.9396 15.9353 24.5726C15.9353 24.4854 15.9524 24.399 15.9858 24.3184C16.0191 24.2379 16.068 24.1646 16.1297 24.103C16.1914 24.0413 16.2646 23.9924 16.3452 23.9591C16.4258 23.9258 16.5122 23.9086 16.5994 23.9087H28.551C28.6382 23.9086 28.7245 23.9258 28.8051 23.9591C28.8857 23.9925 28.9589 24.0414 29.0205 24.103C29.0822 24.1647 29.1311 24.2379 29.1644 24.3185C29.1978 24.399 29.2149 24.4854 29.2149 24.5726C29.2149 24.9396 28.9179 25.2367 28.551 25.2367Z" fill="url(#paint12_linear_1_761)"/>
<path d="M28.551 30.5484H16.5994C16.2325 30.5484 15.9353 30.2516 15.9353 29.8845C15.9353 29.5175 16.2323 29.2205 16.5994 29.2205H28.551C28.9179 29.2205 29.2149 29.5175 29.2149 29.8845C29.2149 30.2516 28.9179 30.5484 28.551 30.5484Z" fill="url(#paint13_linear_1_761)"/>
</g>
<defs>
<linearGradient id="paint0_linear_1_761" x1="8.65174" y1="69.467" x2="8.65174" y2="81.0108" gradientUnits="userSpaceOnUse">
<stop stop-color="#FF7926"/>
<stop offset="1" stop-color="#EE9D00"/>
</linearGradient>
<linearGradient id="paint1_linear_1_761" x1="19.8809" y1="43.6392" x2="19.8809" y2="81.0106" gradientUnits="userSpaceOnUse">
<stop stop-color="#FF7926"/>
<stop offset="1" stop-color="#EE9D00"/>
</linearGradient>
<linearGradient id="paint2_linear_1_761" x1="16.6395" y1="55.7795" x2="16.6395" y2="73.043" gradientUnits="userSpaceOnUse">
<stop stop-color="#FF7926"/>
<stop offset="1" stop-color="#EE9D00"/>
</linearGradient>
<linearGradient id="paint3_linear_1_761" x1="42.5022" y1="67.7415" x2="42.5022" y2="81.0107" gradientUnits="userSpaceOnUse">
<stop stop-color="#FF7926"/>
<stop offset="1" stop-color="#EE9D00"/>
</linearGradient>
<linearGradient id="paint4_linear_1_761" x1="71.7303" y1="57.1267" x2="71.7303" y2="81.0105" gradientUnits="userSpaceOnUse">
<stop stop-color="#FF7926"/>
<stop offset="1" stop-color="#EE9D00"/>
</linearGradient>
<linearGradient id="paint5_linear_1_761" x1="68.431" y1="55.7795" x2="68.431" y2="73.043" gradientUnits="userSpaceOnUse">
<stop stop-color="#FF7926"/>
<stop offset="1" stop-color="#EE9D00"/>
</linearGradient>
<linearGradient id="paint6_linear_1_761" x1="67.114" y1="43.9006" x2="67.114" y2="74.3708" gradientUnits="userSpaceOnUse">
<stop stop-color="#FF7926"/>
<stop offset="1" stop-color="#EE9D00"/>
</linearGradient>
<linearGradient id="paint7_linear_1_761" x1="69.0575" y1="71.7068" x2="69.0575" y2="74.3709" gradientUnits="userSpaceOnUse">
<stop stop-color="#FF7926"/>
<stop offset="1" stop-color="#EE9D00"/>
</linearGradient>
<linearGradient id="paint8_linear_1_761" x1="67.3935" y1="72.3779" x2="67.3935" y2="79.6827" gradientUnits="userSpaceOnUse">
<stop stop-color="#FF7926"/>
<stop offset="1" stop-color="#EE9D00"/>
</linearGradient>
<linearGradient id="paint9_linear_1_761" x1="52.4542" y1="9.30103" x2="52.4542" y2="79.6827" gradientUnits="userSpaceOnUse">
<stop stop-color="#FF7926"/>
<stop offset="1" stop-color="#EE9D00"/>
</linearGradient>
<linearGradient id="paint10_linear_1_761" x1="51.7901" y1="3.98926" x2="51.7901" y2="31.8762" gradientUnits="userSpaceOnUse">
<stop stop-color="#FF7926"/>
<stop offset="1" stop-color="#EE9D00"/>
</linearGradient>
<linearGradient id="paint11_linear_1_761" x1="39.1746" y1="3.98926" x2="39.1746" y2="39.844" gradientUnits="userSpaceOnUse">
<stop stop-color="#FF7926"/>
<stop offset="1" stop-color="#EE9D00"/>
</linearGradient>
<linearGradient id="paint12_linear_1_761" x1="22.5751" y1="23.9087" x2="22.5751" y2="25.2367" gradientUnits="userSpaceOnUse">
<stop stop-color="#FF7926"/>
<stop offset="1" stop-color="#EE9D00"/>
</linearGradient>
<linearGradient id="paint13_linear_1_761" x1="22.5751" y1="29.2205" x2="22.5751" y2="30.5484" gradientUnits="userSpaceOnUse">
<stop stop-color="#FF7926"/>
<stop offset="1" stop-color="#EE9D00"/>
</linearGradient>
<clipPath id="clip0_1_761">
<rect width="85" height="85" fill="white"/>
</clipPath>
</defs>
</svg>
