<svg width="85" height="85" viewBox="0 0 85 85" fill="none" xmlns="http://www.w3.org/2000/svg">
<path d="M31.5378 59.7484C23.5584 59.7484 16.0588 56.6409 10.4168 50.9991C-1.23007 39.3536 -1.23007 20.4039 10.4168 8.75706C16.0586 3.11519 23.5584 0.0090332 31.5364 0.0090332C39.5145 0.0090332 47.0154 3.11519 52.6561 8.75706C58.2995 14.3989 61.407 21.9 61.4083 29.8782C61.4083 37.8563 58.3008 45.3572 52.6588 50.9992C47.0167 56.6411 39.5158 59.7484 31.5378 59.7484ZM31.5364 1.33649C23.9135 1.33649 16.7458 4.30535 11.3552 9.69588C0.226888 20.8241 0.226888 38.9322 11.3552 50.0608C16.7458 55.4526 23.9135 58.4211 31.5376 58.4211C39.1605 58.4211 46.3283 55.4524 51.72 50.0608C57.1118 44.6702 60.0803 37.5023 60.0803 29.8784C60.079 22.2541 57.1103 15.0877 51.7173 9.69604C46.3271 4.30535 39.1605 1.33649 31.5364 1.33649Z" fill="#F4900F"/>
<path d="M31.5363 57.0911C24.2673 57.0911 17.4327 54.261 12.2937 49.122C7.15488 43.9832 4.32349 37.1498 4.32349 29.8796C4.32481 22.6093 7.15488 15.7759 12.2937 10.6358C17.4327 5.49676 24.2674 2.66553 31.5376 2.66553C38.8066 2.66553 45.6398 5.4956 50.7788 10.6344C61.3872 21.2455 61.3885 38.511 50.7815 49.122C45.6411 54.261 38.8064 57.0911 31.5363 57.0911ZM31.5376 3.99299C24.6225 3.99299 18.1212 6.6856 13.2324 11.5743C8.34355 16.4631 5.65228 22.9644 5.65095 29.8795C5.65095 36.7944 8.34355 43.2959 13.2324 48.1834C18.121 53.072 24.6212 55.7633 31.5363 55.7633C38.4526 55.7633 44.954 53.072 49.8428 48.1834C59.9316 38.0896 59.9316 21.6667 49.8402 11.5729C44.9527 6.6856 38.4526 3.99299 31.5376 3.99299Z" fill="#F4900F"/>
<path d="M10.2973 30.5434C10.2101 30.5435 10.1238 30.5264 10.0432 30.493C9.96264 30.4597 9.88945 30.4108 9.8278 30.3492C9.76616 30.2875 9.71727 30.2143 9.68394 30.1338C9.6506 30.0532 9.63348 29.9669 9.63355 29.8797C9.63222 24.0303 11.9113 18.5297 16.0482 14.3928C20.1863 10.2546 25.6856 7.97559 31.5363 7.97559C31.6235 7.97554 31.7098 7.99269 31.7904 8.02604C31.871 8.05939 31.9442 8.10829 32.0058 8.16995C32.0674 8.23161 32.1163 8.30481 32.1497 8.38538C32.183 8.46595 32.2001 8.55229 32.2 8.63948C32.2001 8.72666 32.183 8.81299 32.1496 8.89353C32.1163 8.97408 32.0674 9.04727 32.0057 9.10891C31.9441 9.17055 31.8709 9.21944 31.7904 9.25278C31.7098 9.28612 31.6235 9.30326 31.5363 9.30321C26.0409 9.30321 20.8746 11.4437 16.9867 15.3316C13.1001 19.2182 10.961 24.3842 10.961 29.8799C10.961 29.967 10.9439 30.0533 10.9105 30.1339C10.8772 30.2144 10.8283 30.2875 10.7666 30.3492C10.705 30.4108 10.6318 30.4597 10.5513 30.493C10.4708 30.5263 10.3844 30.5435 10.2973 30.5434ZM57.2996 60.9972C57.2125 60.9972 57.1261 60.9801 57.0456 60.9467C56.9651 60.9133 56.892 60.8643 56.8305 60.8026L50.7813 54.7536C50.522 54.4943 50.522 54.0741 50.7813 53.815C51.0407 53.5558 51.4607 53.5557 51.7198 53.815L57.7689 59.8641C57.8306 59.9257 57.8795 59.9989 57.9129 60.0794C57.9462 60.1599 57.9634 60.2462 57.9634 60.3333C57.9634 60.4205 57.9462 60.5068 57.9129 60.5873C57.8795 60.6678 57.8306 60.741 57.7689 60.8026C57.7074 60.8644 57.6343 60.9133 57.5537 60.9467C57.4732 60.9801 57.3868 60.9973 57.2996 60.9972ZM61.9927 56.3067C61.9055 56.3068 61.8192 56.2897 61.7387 56.2563C61.6581 56.2229 61.585 56.174 61.5234 56.1123L55.4744 50.0607C55.4128 49.9991 55.3639 49.9259 55.3305 49.8454C55.2972 49.7649 55.28 49.6786 55.28 49.5914C55.28 49.5042 55.2972 49.4179 55.3305 49.3374C55.3639 49.2568 55.4128 49.1837 55.4744 49.1221C55.5361 49.0604 55.6092 49.0115 55.6897 48.9781C55.7702 48.9448 55.8565 48.9276 55.9437 48.9276C56.0308 48.9276 56.1171 48.9448 56.1977 48.9781C56.2782 49.0115 56.3513 49.0604 56.4129 49.1221L62.462 55.1737C62.555 55.2665 62.6182 55.3847 62.6439 55.5135C62.6695 55.6423 62.6564 55.7758 62.6062 55.8971C62.5559 56.0184 62.4708 56.1221 62.3616 56.195C62.2524 56.2679 62.124 56.3068 61.9927 56.3067Z" fill="#F4900F"/>
<path d="M56.3612 61.9384C56.2299 61.9385 56.1015 61.8996 55.9923 61.8267C55.8831 61.7537 55.798 61.6501 55.7478 61.5287C55.6975 61.4074 55.6844 61.2739 55.7101 61.1452C55.7357 61.0164 55.799 60.8981 55.8919 60.8053L62.4621 54.2353C62.7215 53.9759 63.1415 53.9759 63.4006 54.2353C63.6598 54.4946 63.6599 54.9146 63.4006 55.1737L56.8306 61.744C56.769 61.8057 56.6958 61.8546 56.6153 61.888C56.5347 61.9213 56.4484 61.9385 56.3612 61.9384Z" fill="#F4900F"/>
<path d="M81.2028 73.6396C81.1156 73.6397 81.0293 73.6226 80.9488 73.5892C80.8682 73.5558 80.7951 73.5069 80.7335 73.4452L62.462 55.1737C62.4003 55.1121 62.3514 55.039 62.3181 54.9584C62.2847 54.8779 62.2675 54.7916 62.2675 54.7045C62.2675 54.6173 62.2847 54.531 62.3181 54.4505C62.3514 54.37 62.4003 54.2968 62.462 54.2352C62.5236 54.1736 62.5967 54.1247 62.6772 54.0913C62.7578 54.0579 62.8441 54.0408 62.9312 54.0408C63.0184 54.0408 63.1047 54.0579 63.1852 54.0913C63.2657 54.1247 63.3388 54.1736 63.4005 54.2352L81.6721 72.5067C81.765 72.5995 81.8282 72.7178 81.8538 72.8465C81.8795 72.9753 81.8663 73.1088 81.8161 73.23C81.7658 73.3513 81.6808 73.455 81.5716 73.5279C81.4624 73.6008 81.3341 73.6397 81.2028 73.6396ZM74.7207 80.2954C74.6336 80.2955 74.5472 80.2783 74.4667 80.245C74.3861 80.2116 74.313 80.1627 74.2514 80.101L55.8917 61.7439C55.8301 61.6823 55.7812 61.6092 55.7478 61.5286C55.7144 61.4481 55.6973 61.3618 55.6973 61.2746C55.6973 61.1875 55.7144 61.1011 55.7478 61.0206C55.7812 60.9401 55.8301 60.8669 55.8917 60.8053C55.9534 60.7436 56.0265 60.6947 56.1071 60.6614C56.1876 60.628 56.2739 60.6108 56.3611 60.6108C56.4482 60.6108 56.5345 60.628 56.6151 60.6614C56.6956 60.6947 56.7688 60.7436 56.8304 60.8053L75.1901 79.1623C75.283 79.2551 75.3462 79.3734 75.3719 79.5022C75.3976 79.6309 75.3844 79.7644 75.3342 79.8857C75.2839 80.007 75.1988 80.1107 75.0896 80.1836C74.9804 80.2566 74.852 80.2954 74.7207 80.2954Z" fill="#F4900F"/>
<path d="M78.01 81.6592C76.5891 81.6592 75.2551 81.1055 74.2516 80.1008C74.1899 80.0392 74.141 79.966 74.1077 79.8855C74.0743 79.805 74.0571 79.7186 74.0571 79.6315C74.0571 79.5443 74.0743 79.458 74.1077 79.3775C74.141 79.2969 74.1899 79.2238 74.2516 79.1622C74.3765 79.0379 74.5454 78.9682 74.7216 78.9682C74.8977 78.9682 75.0667 79.0379 75.1916 79.1622C75.9434 79.9167 76.9444 80.3316 78.01 80.3316H78.0113C78.5337 80.333 79.0511 80.2307 79.5335 80.0306C80.016 79.8305 80.454 79.5366 80.822 79.166C81.5765 78.4129 81.9912 77.4122 81.9912 76.3489C81.9912 75.286 81.5765 74.2849 80.822 73.5304C80.7603 73.4688 80.7114 73.3956 80.6781 73.3151C80.6447 73.2346 80.6275 73.1483 80.6275 73.0612C80.6275 72.974 80.6447 72.8877 80.6781 72.8072C80.7114 72.7267 80.7603 72.6535 80.822 72.5919C80.8836 72.5303 80.9567 72.4814 81.0373 72.448C81.1178 72.4146 81.2041 72.3975 81.2912 72.3975C81.3784 72.3975 81.4647 72.4146 81.5452 72.448C81.6257 72.4814 81.6989 72.5303 81.7605 72.5919C82.7652 73.5966 83.3189 74.9306 83.3189 76.3489C83.3189 77.7671 82.7652 79.1012 81.7605 80.1046C80.7609 81.1054 79.4296 81.659 78.0113 81.659H78.01V81.6592ZM68.1508 84.9908C68.0636 84.9909 67.9773 84.9738 67.8967 84.9404C67.8162 84.907 67.7431 84.858 67.6815 84.7962C67.6199 84.7346 67.571 84.6615 67.5376 84.5809C67.5042 84.5004 67.4871 84.4141 67.4871 84.327C67.4871 84.2398 67.5042 84.1535 67.5376 84.073C67.571 83.9925 67.6199 83.9193 67.6815 83.8577L72.3746 79.1622C72.4362 79.1005 72.5094 79.0516 72.5899 79.0182C72.6704 78.9849 72.7567 78.9677 72.8439 78.9677C72.931 78.9677 73.0173 78.9849 73.0978 79.0182C73.1783 79.0516 73.2515 79.1005 73.3131 79.1622C73.3747 79.2238 73.4237 79.2969 73.457 79.3775C73.4904 79.458 73.5076 79.5443 73.5076 79.6315C73.5076 79.7186 73.4904 79.805 73.457 79.8855C73.4237 79.966 73.3747 80.0392 73.3131 80.1008L68.62 84.7962C68.5585 84.858 68.4854 84.907 68.4049 84.9404C68.3243 84.9738 68.238 84.9909 68.1508 84.9908Z" fill="#F4900F"/>
<path d="M68.1507 84.9909C68.0635 84.991 67.9772 84.9738 67.8966 84.9404C67.8161 84.9071 67.7429 84.8581 67.6814 84.7963L63.9271 81.0394C63.8655 80.9778 63.8166 80.9046 63.7832 80.8241C63.7498 80.7436 63.7326 80.6573 63.7326 80.5701C63.7326 80.483 63.7498 80.3967 63.7832 80.3162C63.8166 80.2356 63.8655 80.1625 63.9271 80.1009L64.3963 79.6316L63.4578 78.6931L62.9884 79.1622C62.9268 79.2239 62.8537 79.2728 62.7732 79.3061C62.6927 79.3395 62.6064 79.3567 62.5192 79.3567C62.4321 79.3567 62.3458 79.3395 62.2652 79.3061C62.1847 79.2728 62.1116 79.2239 62.05 79.1622L61.1115 78.2237C61.0243 78.1366 60.9631 78.0268 60.9349 77.9068C60.9067 77.7868 60.9126 77.6613 60.9519 77.5444L61.7596 75.1189L61.5806 74.9386L60.1702 76.3478C60.0455 76.4719 59.8766 76.5415 59.7007 76.5412C59.5247 76.541 59.356 76.4709 59.2317 76.3464L57.3544 74.4693C57.2927 74.4077 57.2438 74.3345 57.2104 74.254C57.1771 74.1735 57.1599 74.0871 57.1599 74C57.1599 73.9128 57.1771 73.8265 57.2104 73.746C57.2438 73.6654 57.2927 73.5923 57.3544 73.5307C57.416 73.469 57.4892 73.4201 57.5697 73.3867C57.6502 73.3534 57.7365 73.3362 57.8237 73.3362C57.9109 73.3362 57.9972 73.3534 58.0777 73.3867C58.1582 73.4201 58.2314 73.469 58.293 73.5307L59.7008 74.9385L61.1113 73.5307C61.2359 73.4064 61.4046 73.3367 61.5806 73.3367C61.7565 73.3367 61.9252 73.4064 62.0498 73.5307L62.9883 74.4693C63.0754 74.5565 63.1366 74.6662 63.165 74.7862C63.1934 74.9061 63.1879 75.0316 63.1492 75.1486L62.3402 77.5755L62.5191 77.7543L62.9883 77.2851C63.0499 77.2234 63.1231 77.1745 63.2036 77.1412C63.2841 77.1078 63.3704 77.0906 63.4576 77.0906C63.5448 77.0906 63.6311 77.1078 63.7116 77.1412C63.7922 77.1745 63.8653 77.2234 63.9269 77.2851L65.8041 79.1622C65.8657 79.2239 65.9146 79.297 65.948 79.3775C65.9814 79.4581 65.9985 79.5444 65.9985 79.6316C65.9985 79.7187 65.9814 79.805 65.948 79.8856C65.9146 79.9661 65.8657 80.0393 65.8041 80.1009L65.3349 80.57L68.6199 83.8578C68.6815 83.9194 68.7304 83.9926 68.7638 84.0731C68.7971 84.1536 68.8143 84.2399 68.8143 84.3271C68.8143 84.4142 68.7971 84.5005 68.7638 84.581C68.7304 84.6615 68.6815 84.7347 68.6199 84.7963C68.5584 84.8581 68.4853 84.9071 68.4047 84.9405C68.3242 84.9739 68.2379 84.991 68.1507 84.9909Z" fill="#F4900F"/>
<path d="M57.8236 74.6637C57.6923 74.6638 57.5639 74.6249 57.4547 74.552C57.3455 74.4791 57.2604 74.3754 57.2102 74.2541C57.1599 74.1328 57.1468 73.9993 57.1725 73.8705C57.1981 73.7417 57.2614 73.6234 57.3543 73.5306L62.0499 68.8377C62.1115 68.7761 62.1846 68.7272 62.2652 68.6938C62.3457 68.6604 62.432 68.6433 62.5191 68.6433C62.6063 68.6433 62.6926 68.6604 62.7731 68.6938C62.8536 68.7272 62.9268 68.7761 62.9884 68.8377C63.05 68.8993 63.0989 68.9725 63.1323 69.053C63.1657 69.1335 63.1828 69.2198 63.1828 69.307C63.1828 69.3941 63.1657 69.4804 63.1323 69.5609C63.0989 69.6414 63.05 69.7146 62.9884 69.7762L58.293 74.4693C58.2314 74.5311 58.1583 74.58 58.0777 74.6134C57.9972 74.6467 57.9108 74.6639 57.8236 74.6637ZM66.2735 83.1137C66.1422 83.1138 66.0138 83.0749 65.9046 83.002C65.7954 82.9291 65.7103 82.8254 65.66 82.7041C65.6098 82.5828 65.5967 82.4493 65.6223 82.3205C65.648 82.1917 65.7113 82.0735 65.8042 81.9807L66.2735 81.5115C66.3351 81.4499 66.4083 81.401 66.4888 81.3676C66.5693 81.3342 66.6556 81.3171 66.7427 81.3171C66.8299 81.3171 66.9162 81.3342 66.9967 81.3676C67.0772 81.401 67.1504 81.4499 67.212 81.5115C67.2736 81.5731 67.3225 81.6463 67.3559 81.7268C67.3893 81.8073 67.4064 81.8936 67.4064 81.9808C67.4064 82.0679 67.3893 82.1542 67.3559 82.2347C67.3225 82.3152 67.2736 82.3884 67.212 82.45L66.7428 82.9193C66.6813 82.9811 66.6081 83.03 66.5276 83.0634C66.447 83.0967 66.3607 83.1139 66.2735 83.1137ZM79.414 75.6024C79.3268 75.6025 79.2404 75.5854 79.1599 75.552C79.0794 75.5186 79.0062 75.4697 78.9446 75.408L62.4623 58.9256C62.4006 58.864 62.3517 58.7908 62.3183 58.7103C62.285 58.6297 62.2678 58.5434 62.2678 58.4563C62.2678 58.3691 62.285 58.2828 62.3183 58.2023C62.3517 58.1217 62.4006 58.0486 62.4623 57.9869C62.5239 57.9253 62.597 57.8764 62.6775 57.843C62.7581 57.8097 62.8444 57.7925 62.9315 57.7925C63.0187 57.7925 63.105 57.8097 63.1855 57.843C63.266 57.8764 63.3392 57.9253 63.4008 57.9869L79.8831 74.4695C79.976 74.5622 80.0393 74.6805 80.065 74.8092C80.0907 74.938 80.0776 75.0715 80.0273 75.1928C79.9771 75.3141 79.892 75.4178 79.7828 75.4907C79.6736 75.5636 79.5453 75.6025 79.414 75.6024Z" fill="#F4900F"/>
</svg>
